<svg width="21" height="16" viewBox="0 0 21 16" fill="none" xmlns="http://www.w3.org/2000/svg">
    <g clip-path="url(#clip0_1495_28384)">
        <mask id="mask0_1495_28384" style="mask-type:alpha" maskUnits="userSpaceOnUse" x="0" y="0" width="21" height="16">
            <path d="M19 0.5H2C0.89543 0.5 0 1.39543 0 2.5V13.5C0 14.6046 0.89543 15.5 2 15.5H19C20.1046 15.5 21 14.6046 21 13.5V2.5C21 1.39543 20.1046 0.5 19 0.5Z" fill="white"/>
        </mask>
        <g mask="url(#mask0_1495_28384)">
            <path d="M19 0.5H2C0.89543 0.5 0 1.39543 0 2.5V13.5C0 14.6046 0.89543 15.5 2 15.5H19C20.1046 15.5 21 14.6046 21 13.5V2.5C21 1.39543 20.1046 0.5 19 0.5Z" fill="#DC220D"/>
            <path fill-rule="evenodd" clip-rule="evenodd" d="M10.5019 9.83L8.41195 10.93L8.81195 8.603L7.12195 6.956L9.45795 6.616L10.5019 4.5L11.5469 6.616L13.8819 6.956L12.1919 8.603L12.5919 10.929" fill="#FFFF00"/>
            <path d="M19 1H2C1.17157 1 0.5 1.67157 0.5 2.5V13.5C0.5 14.3284 1.17157 15 2 15H19C19.8284 15 20.5 14.3284 20.5 13.5V2.5C20.5 1.67157 19.8284 1 19 1Z" stroke="black" stroke-opacity="0.1"/>
        </g>
    </g>
    <defs>
        <clipPath id="clip0_1495_28384">
            <rect width="21" height="15" fill="white" transform="translate(0 0.5)"/>
        </clipPath>
    </defs>
</svg>
