<svg style="opacity: 0.2" width="375" height="120" viewBox="0 0 375 120" fill="none" xmlns="http://www.w3.org/2000/svg">
    <path d="M36.3332 45.3314C48.8511 45.3314 58.9989 35.1836 58.9989 22.6657C58.9989 10.1478 48.8511 0 36.3332 0C23.8153 0 13.6675 10.1478 13.6675 22.6657C13.6675 35.1836 23.8153 45.3314 36.3332 45.3314Z" fill="#F1ACB0"/>
    <path fill-rule="evenodd" clip-rule="evenodd" d="M81.6638 45.3314C94.1816 45.3314 104.329 35.1835 104.329 22.6657C104.329 10.1478 94.1816 0 81.6638 0C69.1458 0 58.998 10.1478 58.998 22.6657C58.998 35.1835 69.1458 45.3314 81.6638 45.3314ZM81.6638 38.5317C90.4263 38.5317 97.5298 31.4283 97.5298 22.6657C97.5298 13.9032 90.4263 6.79972 81.6638 6.79972C72.9012 6.79972 65.7978 13.9032 65.7978 22.6657C65.7978 31.4283 72.9012 38.5317 81.6638 38.5317Z" fill="#3B5FEE"/>
    <path d="M217.664 45.3314C230.182 45.3314 240.329 35.1836 240.329 22.6657C240.329 10.1478 230.182 0 217.664 0C205.146 0 194.998 10.1478 194.998 22.6657C194.998 35.1836 205.146 45.3314 217.664 45.3314Z" fill="#E97A82"/>
    <path fill-rule="evenodd" clip-rule="evenodd" d="M2.33481 67.9972C8.59372 67.9972 13.6677 62.9233 13.6677 56.6643C13.6677 50.4054 8.59372 45.3315 2.33481 45.3315C-3.92416 45.3315 -8.99805 50.4054 -8.99805 56.6643C-8.99805 62.9233 -3.92416 67.9972 2.33481 67.9972ZM2.33481 64.5973C6.71609 64.5973 10.2678 61.0456 10.2678 56.6643C10.2678 52.2831 6.71609 48.7313 2.33481 48.7313C-2.04646 48.7313 -5.59819 52.2831 -5.59819 56.6643C-5.59819 61.0456 -2.04646 64.5973 2.33481 64.5973Z" fill="#F3F5FE"/>
    <path fill-rule="evenodd" clip-rule="evenodd" d="M2.33481 90.6678C8.59372 90.6678 13.6677 85.5938 13.6677 79.3349C13.6677 73.076 8.59372 68.0021 2.33481 68.0021C-3.92416 68.0021 -8.99805 73.076 -8.99805 79.3349C-8.99805 85.5938 -3.92416 90.6678 2.33481 90.6678ZM2.33481 87.2679C6.71609 87.2679 10.2678 83.7162 10.2678 79.3349C10.2678 74.9537 6.71609 71.4019 2.33481 71.4019C-2.04646 71.4019 -5.59819 74.9537 -5.59819 79.3349C-5.59819 83.7162 -2.04646 87.2679 2.33481 87.2679Z" fill="#F0A3A8"/>
    <path fill-rule="evenodd" clip-rule="evenodd" d="M36.3332 90.6629C48.851 90.6629 58.9989 80.515 58.9989 67.9972C58.9989 55.4793 48.851 45.3315 36.3332 45.3315C23.8153 45.3315 13.6675 55.4793 13.6675 67.9972C13.6675 80.515 23.8153 90.6629 36.3332 90.6629ZM36.3332 83.8632C45.0958 83.8632 52.1992 76.7598 52.1992 67.9972C52.1992 59.2347 45.0958 52.1312 36.3332 52.1312C27.5707 52.1312 20.4672 59.2347 20.4672 67.9972C20.4672 76.7598 27.5707 83.8632 36.3332 83.8632Z" fill="#FAE0E1"/>
    <path d="M92.9979 135.999C99.2569 135.999 104.331 130.925 104.331 124.666C104.331 118.408 99.2569 113.334 92.9979 113.334C86.7389 113.334 81.665 118.408 81.665 124.666C81.665 130.925 86.7389 135.999 92.9979 135.999Z" fill="#BECAFA"/>
    <path fill-rule="evenodd" clip-rule="evenodd" d="M172.333 136C184.851 136 194.998 125.852 194.998 113.334C194.998 100.816 184.851 90.6685 172.333 90.6685C159.815 90.6685 149.667 100.816 149.667 113.334C149.667 125.852 159.815 136 172.333 136ZM172.333 129.2C181.095 129.2 188.199 122.097 188.199 113.334C188.199 104.572 181.095 97.4682 172.333 97.4682C163.57 97.4682 156.467 104.572 156.467 113.334C156.467 122.097 163.57 129.2 172.333 129.2Z" fill="#CAD3FA"/>
    <path fill-rule="evenodd" clip-rule="evenodd" d="M263 136C275.518 136 285.666 125.852 285.666 113.334C285.666 100.816 275.518 90.6685 263 90.6685C250.482 90.6685 240.334 100.816 240.334 113.334C240.334 125.852 250.482 136 263 136ZM263 129.2C271.763 129.2 278.866 122.097 278.866 113.334C278.866 104.572 271.763 97.4682 263 97.4682C254.238 97.4682 247.134 104.572 247.134 113.334C247.134 122.097 254.238 129.2 263 129.2Z" fill="#DD2D39"/>
    <path fill-rule="evenodd" clip-rule="evenodd" d="M308.333 136C320.851 136 330.998 125.852 330.998 113.334C330.998 100.816 320.851 90.6685 308.333 90.6685C295.815 90.6685 285.667 100.816 285.667 113.334C285.667 125.852 295.815 136 308.333 136ZM308.333 129.2C317.095 129.2 324.199 122.097 324.199 113.334C324.199 104.572 317.095 97.4682 308.333 97.4682C299.57 97.4682 292.467 104.572 292.467 113.334C292.467 122.097 299.57 129.2 308.333 129.2Z" fill="#B3C1F9"/>
</svg>
