<svg style="opacity: 0.2" width="981" height="108" viewBox="0 0 981 108" fill="none" xmlns="http://www.w3.org/2000/svg">
    <path fill-rule="evenodd" clip-rule="evenodd" d="M186.881 30.8212C203.124 30.8212 216.292 17.6535 216.292 1.4106C216.292 -14.8324 203.124 -28 186.881 -28C170.638 -28 157.471 -14.8324 157.471 1.4106C157.471 17.6535 170.638 30.8212 186.881 30.8212ZM186.881 21.998C198.251 21.998 207.469 12.7807 207.469 1.4106C207.469 -9.95951 198.251 -19.1768 186.881 -19.1768C175.511 -19.1768 166.294 -9.95951 166.294 1.4106C166.294 12.7807 175.511 21.998 186.881 21.998Z" fill="#F8D3D6"/>
    <path d="M304.53 30.8212C320.773 30.8212 333.94 17.6536 333.94 1.41059C333.94 -14.8324 320.773 -28 304.53 -28C288.287 -28 275.119 -14.8324 275.119 1.41059C275.119 17.6536 288.287 30.8212 304.53 30.8212Z" fill="#F1ACB0"/>
    <path fill-rule="evenodd" clip-rule="evenodd" d="M363.35 30.8212C379.593 30.8212 392.761 17.6535 392.761 1.4106C392.761 -14.8324 379.593 -28 363.35 -28C347.107 -28 333.939 -14.8324 333.939 1.4106C333.939 17.6535 347.107 30.8212 363.35 30.8212ZM363.35 21.998C374.72 21.998 383.937 12.7807 383.937 1.4106C383.937 -9.95951 374.72 -19.1768 363.35 -19.1768C351.98 -19.1768 342.763 -9.95951 342.763 1.4106C342.763 12.7807 351.98 21.998 363.35 21.998Z" fill="#3B5FEE"/>
    <path d="M539.821 30.8212C556.064 30.8212 569.231 17.6536 569.231 1.41059C569.231 -14.8324 556.064 -28 539.821 -28C523.578 -28 510.41 -14.8324 510.41 1.41059C510.41 17.6536 523.578 30.8212 539.821 30.8212Z" fill="#E97A82"/>
    <path fill-rule="evenodd" clip-rule="evenodd" d="M775.12 30.8212C791.362 30.8212 804.53 17.6535 804.53 1.4106C804.53 -14.8324 791.362 -28 775.12 -28C758.877 -28 745.709 -14.8324 745.709 1.4106C745.709 17.6535 758.877 30.8212 775.12 30.8212ZM775.12 21.998C786.49 21.998 795.707 12.7807 795.707 1.4106C795.707 -9.95951 786.49 -19.1768 775.12 -19.1768C763.749 -19.1768 754.532 -9.95951 754.532 1.4106C754.532 12.7807 763.749 21.998 775.12 21.998Z" fill="#F7D0D2"/>
    <path d="M69.2309 89.6424C85.4739 89.6424 98.6415 76.4748 98.6415 60.2318C98.6415 43.9887 85.4739 30.8212 69.2309 30.8212C52.9879 30.8212 39.8203 43.9887 39.8203 60.2318C39.8203 76.4748 52.9879 89.6424 69.2309 89.6424Z" fill="#4769EF"/>
    <path fill-rule="evenodd" clip-rule="evenodd" d="M260.414 60.2318C268.536 60.2318 275.12 53.6479 275.12 45.5265C275.12 37.4049 268.536 30.8212 260.414 30.8212C252.293 30.8212 245.709 37.4049 245.709 45.5265C245.709 53.6479 252.293 60.2318 260.414 60.2318ZM260.414 55.8202C266.099 55.8202 270.708 51.2115 270.708 45.5265C270.708 39.8414 266.099 35.2328 260.414 35.2328C254.729 35.2328 250.121 39.8414 250.121 45.5265C250.121 51.2115 254.729 55.8202 260.414 55.8202Z" fill="#F3F5FE"/>
    <path fill-rule="evenodd" clip-rule="evenodd" d="M260.414 89.649C268.536 89.649 275.12 83.0651 275.12 74.9437C275.12 66.8222 268.536 60.2384 260.414 60.2384C252.293 60.2384 245.709 66.8222 245.709 74.9437C245.709 83.0651 252.293 89.649 260.414 89.649ZM260.414 85.2374C266.099 85.2374 270.708 80.6288 270.708 74.9437C270.708 69.2586 266.099 64.65 260.414 64.65C254.729 64.65 250.121 69.2586 250.121 74.9437C250.121 80.6288 254.729 85.2374 260.414 85.2374Z" fill="#F0A3A8"/>
    <path fill-rule="evenodd" clip-rule="evenodd" d="M304.53 89.6424C320.773 89.6424 333.94 76.4746 333.94 60.2318C333.94 43.9887 320.773 30.8212 304.53 30.8212C288.287 30.8212 275.119 43.9887 275.119 60.2318C275.119 76.4746 288.287 89.6424 304.53 89.6424ZM304.53 80.8192C315.9 80.8192 325.117 71.6019 325.117 60.2318C325.117 48.8617 315.9 39.6443 304.53 39.6443C293.16 39.6443 283.942 48.8617 283.942 60.2318C283.942 71.6019 293.16 80.8192 304.53 80.8192Z" fill="#FAE0E1"/>
    <path fill-rule="evenodd" clip-rule="evenodd" d="M775.12 89.6424C791.362 89.6424 804.53 76.4746 804.53 60.2318C804.53 43.9887 791.362 30.8212 775.12 30.8212C758.877 30.8212 745.709 43.9887 745.709 60.2318C745.709 76.4746 758.877 89.6424 775.12 89.6424ZM775.12 80.8192C786.49 80.8192 795.707 71.6019 795.707 60.2318C795.707 48.8617 786.49 39.6443 775.12 39.6443C763.749 39.6443 754.532 48.8617 754.532 60.2318C754.532 71.6019 763.749 80.8192 775.12 80.8192Z" fill="#9AADF6"/>
    <path fill-rule="evenodd" clip-rule="evenodd" d="M833.94 89.6424C850.183 89.6424 863.35 76.4746 863.35 60.2318C863.35 43.9887 850.183 30.8212 833.94 30.8212C817.697 30.8212 804.529 43.9887 804.529 60.2318C804.529 76.4746 817.697 89.6424 833.94 89.6424ZM833.94 80.8192C845.31 80.8192 854.527 71.6019 854.527 60.2318C854.527 48.8617 845.31 39.6443 833.94 39.6443C822.57 39.6443 813.352 48.8617 813.352 60.2318C813.352 71.6019 822.57 80.8192 833.94 80.8192Z" fill="#F9DBDD"/>
    <path fill-rule="evenodd" clip-rule="evenodd" d="M69.2309 148.471C85.4738 148.471 98.6415 135.303 98.6415 119.06C98.6415 102.817 85.4738 89.6494 69.2309 89.6494C52.9879 89.6494 39.8203 102.817 39.8203 119.06C39.8203 135.303 52.9879 148.471 69.2309 148.471ZM69.2309 139.647C80.601 139.647 89.8183 130.43 89.8183 119.06C89.8183 107.69 80.601 98.4726 69.2309 98.4726C57.8608 98.4726 48.6435 107.69 48.6435 119.06C48.6435 130.43 57.8608 139.647 69.2309 139.647Z" fill="#FCEDEE"/>
    <path fill-rule="evenodd" clip-rule="evenodd" d="M481 148.471C497.243 148.471 510.411 135.303 510.411 119.06C510.411 102.817 497.243 89.6494 481 89.6494C464.757 89.6494 451.59 102.817 451.59 119.06C451.59 135.303 464.757 148.471 481 148.471ZM481 139.647C492.371 139.647 501.588 130.43 501.588 119.06C501.588 107.69 492.371 98.4726 481 98.4726C469.63 98.4726 460.413 107.69 460.413 119.06C460.413 130.43 469.63 139.647 481 139.647Z" fill="#CAD3FA"/>
    <path fill-rule="evenodd" clip-rule="evenodd" d="M598.649 148.471C614.892 148.471 628.059 135.303 628.059 119.06C628.059 102.817 614.892 89.6494 598.649 89.6494C582.406 89.6494 569.238 102.817 569.238 119.06C569.238 135.303 582.406 148.471 598.649 148.471ZM598.649 139.647C610.019 139.647 619.236 130.43 619.236 119.06C619.236 107.69 610.019 98.4726 598.649 98.4726C587.279 98.4726 578.061 107.69 578.061 119.06C578.061 130.43 587.279 139.647 598.649 139.647Z" fill="#DD2D39"/>
    <path fill-rule="evenodd" clip-rule="evenodd" d="M657.471 148.471C673.714 148.471 686.882 135.303 686.882 119.06C686.882 102.817 673.714 89.6494 657.471 89.6494C641.228 89.6494 628.061 102.817 628.061 119.06C628.061 135.303 641.228 148.471 657.471 148.471ZM657.471 139.647C668.841 139.647 678.059 130.43 678.059 119.06C678.059 107.69 668.841 98.4726 657.471 98.4726C646.101 98.4726 636.884 107.69 636.884 119.06C636.884 130.43 646.101 139.647 657.471 139.647Z" fill="#B3C1F9"/>
</svg>
