<svg width="20" height="21" viewBox="0 0 20 21" fill="none" xmlns="http://www.w3.org/2000/svg">
    <path d="M20 10.2642C20 4.74074 15.5234 0.26416 10 0.26416C4.47658 0.26416 0 4.74074 0 10.2642C0 15.2564 3.65625 19.3931 8.4375 20.1431V13.1548H5.89842V10.2642H8.4375V8.06104C8.4375 5.55516 9.92971 4.17041 12.2148 4.17041C13.3086 4.17041 14.4531 4.36572 14.4531 4.36572V6.82666H13.1914C11.9492 6.82666 11.5625 7.59816 11.5625 8.38916V10.2642H14.3359L13.8926 13.1548H11.5625V20.1431C16.3438 19.3931 20 15.2564 20 10.2642Z" fill="#1877F2"/>
    <path d="M13.8926 13.1548L14.3359 10.2642H11.5625V8.38916C11.5625 7.59816 11.9492 6.82666 13.1914 6.82666H14.4531V4.36572C14.4531 4.36572 13.3086 4.17041 12.2149 4.17041C9.92973 4.17041 8.43752 5.55516 8.43752 8.06103V10.2642H5.89844V13.1548H8.43752V20.1431C8.94727 20.2232 9.46877 20.2642 10 20.2642C10.5313 20.2642 11.0528 20.2232 11.5625 20.1431V13.1548H13.8926Z" fill="white"/>
</svg>
