<svg width="20" height="21" viewBox="0 0 20 21" fill="none" xmlns="http://www.w3.org/2000/svg">
    <path opacity="0.4" d="M6.37505 17.6892C6.35005 17.6892 6.31672 17.7059 6.29172 17.7059C4.67505 16.9059 3.35838 15.5809 2.55005 13.9642C2.55005 13.9392 2.56672 13.9059 2.56672 13.8809C3.58338 14.1809 4.63338 14.4059 5.67505 14.5809C5.85838 15.6309 6.07505 16.6725 6.37505 17.6892Z" fill="#4B56FF"/>
    <path opacity="0.4" d="M17.45 13.9725C16.625 15.6309 15.25 16.9725 13.575 17.7809C13.8916 16.7225 14.1583 15.6559 14.3333 14.5809C15.3833 14.4059 16.4166 14.1809 17.4333 13.8809C17.425 13.9142 17.45 13.9475 17.45 13.9725Z" fill="#4B56FF"/>
    <path opacity="0.4" d="M17.5166 6.68923C16.4666 6.37256 15.4083 6.11423 14.3333 5.93089C14.1583 4.85589 13.9 3.78923 13.575 2.74756C15.3 3.57256 16.6916 4.96423 17.5166 6.68923Z" fill="#4B56FF"/>
    <path opacity="0.4" d="M6.37494 2.83921C6.07494 3.85588 5.85828 4.88921 5.68328 5.93921C4.60828 6.10588 3.54161 6.37254 2.48328 6.68921C3.29161 5.01421 4.63328 3.63921 6.29161 2.81421C6.31661 2.81421 6.34994 2.83921 6.37494 2.83921Z" fill="#4B56FF"/>
    <path d="M12.9083 5.75591C10.975 5.53924 9.02501 5.53924 7.09167 5.75591C7.30001 4.61424 7.56667 3.47257 7.94167 2.37257C7.95834 2.30591 7.95001 2.25591 7.95834 2.18924C8.61667 2.03091 9.29167 1.93091 10 1.93091C10.7 1.93091 11.3833 2.03091 12.0333 2.18924C12.0417 2.25591 12.0417 2.30591 12.0583 2.37257C12.4333 3.48091 12.7 4.61424 12.9083 5.75591Z" fill="#4B56FF"/>
    <path d="M5.49163 13.1724C4.34163 12.964 3.20829 12.6974 2.10829 12.3224C2.04163 12.3057 1.99163 12.314 1.92496 12.3057C1.76663 11.6474 1.66663 10.9724 1.66663 10.264C1.66663 9.56405 1.76663 8.88071 1.92496 8.23071C1.99163 8.22238 2.04163 8.22238 2.10829 8.20571C3.21663 7.83905 4.34163 7.56405 5.49163 7.35571C5.28329 9.28905 5.28329 11.239 5.49163 13.1724Z" fill="#4B56FF"/>
    <path d="M18.3333 10.264C18.3333 10.9724 18.2333 11.6474 18.075 12.3057C18.0083 12.314 17.9583 12.3057 17.8916 12.3224C16.7833 12.689 15.65 12.964 14.5083 13.1724C14.725 11.239 14.725 9.28905 14.5083 7.35571C15.65 7.56405 16.7916 7.83071 17.8916 8.20571C17.9583 8.22238 18.0083 8.23071 18.075 8.23071C18.2333 8.88905 18.3333 9.56405 18.3333 10.264Z" fill="#4B56FF"/>
    <path d="M12.9083 14.7725C12.7 15.9225 12.4333 17.0558 12.0583 18.1558C12.0417 18.2225 12.0417 18.2725 12.0333 18.3391C11.3833 18.4975 10.7 18.5975 10 18.5975C9.29167 18.5975 8.61667 18.4975 7.95834 18.3391C7.95001 18.2725 7.95834 18.2225 7.94167 18.1558C7.57501 17.0475 7.30001 15.9225 7.09167 14.7725C8.05834 14.8808 9.02501 14.9558 10 14.9558C10.975 14.9558 11.95 14.8808 12.9083 14.7725Z" fill="#4B56FF"/>
    <path d="M13.1361 13.4004C11.0518 13.6633 8.9481 13.6633 6.86385 13.4004C6.60088 11.3161 6.60088 9.21238 6.86385 7.12813C8.9481 6.86517 11.0518 6.86517 13.1361 7.12813C13.399 9.21238 13.399 11.3161 13.1361 13.4004Z" fill="#4B56FF"/>
</svg>
