<svg width="20" height="21" viewBox="0 0 20 21" fill="none" xmlns="http://www.w3.org/2000/svg">
    <path d="M0 10.2642C0 4.74131 4.47715 0.26416 10 0.26416C15.5228 0.26416 20 4.74131 20 10.2642C20 15.787 15.5228 20.2642 10 20.2642C4.47715 20.2642 0 15.787 0 10.2642Z" fill="#0077B5"/>
    <path fill-rule="evenodd" clip-rule="evenodd" d="M7.21611 6.44028C7.21611 7.09408 6.72398 7.61722 5.93379 7.61722H5.91931C5.15848 7.61722 4.66663 7.09408 4.66663 6.44028C4.66663 5.77266 5.17346 5.26416 5.94872 5.26416C6.72398 5.26416 7.2014 5.77266 7.21611 6.44028ZM7.06685 8.5466V15.3556H4.80063V8.5466H7.06685ZM15.2396 15.3556L15.2397 11.4515C15.2397 9.3601 14.1217 8.38671 12.6304 8.38671C11.4272 8.38671 10.8885 9.0476 10.5877 9.51122V8.54678H8.32125C8.35112 9.1857 8.32125 15.3558 8.32125 15.3558H10.5877V11.5531C10.5877 11.3496 10.6025 11.1466 10.6624 11.0009C10.8262 10.5943 11.1991 10.1734 11.8252 10.1734C12.6455 10.1734 12.9735 10.7978 12.9735 11.7128V15.3556H15.2396Z" fill="white"/>
</svg>
