<svg width="201" height="184" viewBox="0 0 201 184" fill="none" xmlns="http://www.w3.org/2000/svg">
    <g clip-path="url(#clip0_908_20695)">
        <g opacity="0.05">
            <path fill-rule="evenodd" clip-rule="evenodd" d="M207.652 11.5527C207.638 9.45236 205.804 7.74586 203.673 7.73273C201.462 7.71961 199.533 9.58362 199.627 11.7102C199.722 13.7973 201.354 15.517 203.606 15.5038C205.953 15.5432 207.652 13.7448 207.652 11.5527Z" fill="#4070DB"/>
            <path fill-rule="evenodd" clip-rule="evenodd" d="M199.223 -0.0253568C199.223 -2.16503 197.51 -3.89776 195.339 -3.95027C193.073 -4.00278 191.212 -2.24379 191.198 -0.0384762C191.185 2.16683 193.032 3.89958 195.325 3.8602C197.51 3.83394 199.263 2.10119 199.223 -0.0253568Z" fill="#4070DB"/>
            <path fill-rule="evenodd" clip-rule="evenodd" d="M188.986 -1.86292C189.027 -3.72693 187.382 -5.68284 184.981 -5.64346C182.499 -5.60408 180.935 -3.56942 181.043 -1.56101C181.151 0.52616 183.012 2.19327 185.17 2.08825C187.584 1.98324 189.108 0.0273452 188.986 -1.86292Z" fill="#4070DB"/>
            <path fill-rule="evenodd" clip-rule="evenodd" d="M197.375 9.95121C197.429 7.70652 195.649 6.06565 193.505 6.0394C191.374 6.01315 189.567 7.52275 189.486 9.83308C189.418 11.6971 190.902 13.6792 193.383 13.7317C195.635 13.7711 197.389 12.0253 197.375 9.95121Z" fill="#4070DB"/>
            <path fill-rule="evenodd" clip-rule="evenodd" d="M201.799 25.3094C203.835 25.4013 205.642 23.8392 205.71 21.7258C205.791 19.5205 204.199 17.8403 201.907 17.7878C199.641 17.7353 197.969 19.4942 197.982 21.6077C198.009 23.6686 199.789 25.3619 201.799 25.3094Z" fill="#4070DB"/>
            <path fill-rule="evenodd" clip-rule="evenodd" d="M187.112 8.23161C187.233 6.40698 185.655 4.37232 183.201 4.4117C180.867 4.45108 179.411 6.21007 179.357 8.10034C179.303 9.89871 180.733 11.9334 183.295 11.9203C185.669 11.9071 187.179 9.92497 187.112 8.23161Z" fill="#4070DB"/>
            <path fill-rule="evenodd" clip-rule="evenodd" d="M178.75 -3.67454C178.669 -5.66982 176.957 -7.33692 174.893 -7.3763C172.776 -7.42881 170.969 -5.6567 170.928 -3.55641C170.888 -1.8893 172.358 0.289772 174.893 0.211011C177.415 0.224138 178.818 -1.98118 178.75 -3.67454Z" fill="#4070DB"/>
            <path fill-rule="evenodd" clip-rule="evenodd" d="M191.387 23.5244C193.841 23.7213 195.365 21.726 195.473 20.1508C195.635 17.8668 193.801 16.1734 191.818 16.1078C189.539 16.0421 187.934 17.7618 187.84 19.6126C187.732 21.9098 189.593 23.4982 191.387 23.5244Z" fill="#4070DB"/>
            <path fill-rule="evenodd" clip-rule="evenodd" d="M176.876 6.49879C176.957 4.6479 175.406 2.75763 173.234 2.67887C170.942 2.60011 169.229 4.31973 169.215 6.35439C169.202 8.34967 170.834 10.0693 172.978 10.0562C175.271 10.1349 176.795 8.29717 176.876 6.49879Z" fill="#4070DB"/>
            <path fill-rule="evenodd" clip-rule="evenodd" d="M162.823 8.21838C164.751 8.29714 166.585 6.76131 166.559 4.52974C166.532 2.57384 164.859 1.01174 162.863 0.998618C160.894 0.985491 159.154 2.53447 159.114 4.47724C159.074 6.6563 160.827 8.27089 162.823 8.21838Z" fill="#4070DB"/>
            <path fill-rule="evenodd" clip-rule="evenodd" d="M181.502 21.6865C183.605 21.7521 185.291 19.875 185.251 17.9453C185.21 16.147 183.592 14.4011 181.542 14.3748C179.492 14.3486 177.712 15.9632 177.698 18.0241C177.685 20.1375 179.519 21.7915 181.502 21.6865Z" fill="#4070DB"/>
            <path fill-rule="evenodd" clip-rule="evenodd" d="M171.373 19.8751C173.194 19.9145 174.947 18.3655 174.987 16.2915C175.028 14.2962 173.207 12.6159 171.144 12.6684C169.134 12.7209 167.583 14.3093 167.556 16.2783C167.543 18.3524 169.35 20.0063 171.373 19.8751Z" fill="#4070DB"/>
            <path fill-rule="evenodd" clip-rule="evenodd" d="M193.572 29.8908C193.639 27.6461 191.684 26.1234 189.89 26.1366C187.894 26.1497 186.235 27.6986 186.154 29.6283C186.06 31.5973 187.773 33.422 189.849 33.3563C191.926 33.4351 193.518 31.6498 193.572 29.8908Z" fill="#4070DB"/>
            <path fill-rule="evenodd" clip-rule="evenodd" d="M152.735 6.48555C154.609 6.52493 156.336 4.92346 156.349 2.91505C156.349 0.617852 154.34 -0.812972 152.546 -0.734211C150.55 -0.65545 148.945 0.827883 148.918 2.87567C148.905 4.94971 150.658 6.59057 152.735 6.48555Z" fill="#4070DB"/>
            <path fill-rule="evenodd" clip-rule="evenodd" d="M203.754 31.4004C203.714 29.4577 201.974 27.8824 200.086 27.8431C197.942 27.8168 196.269 29.5889 196.256 31.4792C196.242 33.3826 197.942 35.2335 200.059 35.1285C201.947 35.1941 203.795 33.5401 203.754 31.4004Z" fill="#4070DB"/>
            <path fill-rule="evenodd" clip-rule="evenodd" d="M164.67 14.5062C164.643 12.5634 162.876 10.87 160.948 11.0013C158.898 11.1457 157.387 12.6421 157.455 14.7031C157.509 16.5933 159.235 18.0767 161.056 18.0767C162.822 18.0767 164.684 16.7115 164.67 14.5062Z" fill="#4070DB"/>
            <path fill-rule="evenodd" clip-rule="evenodd" d="M183.349 28.1449C183.43 26.1234 181.758 24.3906 179.694 24.3775C177.712 24.3644 176.067 25.9659 176.013 27.8955C175.945 29.8646 177.672 31.5317 179.546 31.5185C181.785 31.6235 183.282 29.7727 183.349 28.1449Z" fill="#4070DB"/>
            <path fill-rule="evenodd" clip-rule="evenodd" d="M173.18 26.2022C173.207 24.2988 171.481 22.5792 169.512 22.5924C167.152 22.6186 165.803 24.4826 165.763 26.0972C165.722 28.1582 167.449 29.7859 169.296 29.7727C171.495 29.9303 173.167 28.1713 173.18 26.2022Z" fill="#4070DB"/>
            <path fill-rule="evenodd" clip-rule="evenodd" d="M201.907 41.4293C201.988 39.3421 200.099 37.7406 198.117 37.78C196.161 37.8194 194.462 39.4865 194.489 41.3899C194.516 43.5952 196.404 44.9735 198.09 45.026C200.194 45.1048 201.988 43.372 201.907 41.4293Z" fill="#4070DB"/>
            <path fill-rule="evenodd" clip-rule="evenodd" d="M191.711 39.736C191.819 38.1214 190.524 36.1655 188.191 36.0211C186.168 35.903 184.32 37.5439 184.32 39.631C184.32 41.6788 186.128 43.2146 187.975 43.2278C190.093 43.2409 191.738 41.4557 191.711 39.736Z" fill="#4070DB"/>
            <path fill-rule="evenodd" clip-rule="evenodd" d="M181.529 37.7668C181.461 35.8634 179.681 34.2225 177.766 34.3275C175.756 34.4325 174.111 36.1259 174.232 38.0031C174.367 40.1559 176.201 41.4948 177.995 41.416C179.991 41.3373 181.596 39.7096 181.529 37.7668Z" fill="#4070DB"/>
            <path fill-rule="evenodd" clip-rule="evenodd" d="M196.472 54.8057C198.387 54.7794 199.978 53.2436 200.019 51.3796C200.113 49.6731 198.724 47.7828 196.404 47.796C194.462 47.8091 192.911 49.2268 192.857 51.2089C192.817 53.1911 194.476 54.832 196.472 54.8057Z" fill="#4070DB"/>
            <path fill-rule="evenodd" clip-rule="evenodd" d="M154.475 12.7995C154.461 10.9749 152.978 9.26842 150.779 9.3078C148.81 9.33405 147.3 10.8305 147.246 12.7339C147.178 14.8736 149.026 16.4094 150.82 16.3307C152.748 16.4226 154.488 14.7817 154.475 12.7995Z" fill="#4070DB"/>
            <path fill-rule="evenodd" clip-rule="evenodd" d="M167.611 39.6308C169.485 39.6702 171.306 38.2394 171.292 36.1128C171.279 34.2488 169.795 32.6867 167.772 32.6736C165.277 32.608 164.037 34.7214 164.091 36.1785C164.158 38.2131 165.857 39.6046 167.611 39.6308Z" fill="#4070DB"/>
            <path fill-rule="evenodd" clip-rule="evenodd" d="M142.269 4.64796C144.602 4.79236 146.045 2.8496 146.113 1.34001C146.194 -0.379606 144.818 -2.26988 142.633 -2.32239C140.583 -2.3749 138.952 -0.878437 138.911 1.10372C138.857 2.9546 140.381 4.52982 142.269 4.64796Z" fill="#4070DB"/>
            <path fill-rule="evenodd" clip-rule="evenodd" d="M186.316 53.0333C188.218 52.994 189.782 51.445 189.809 49.5941C189.836 47.6645 188.178 46.0761 186.155 46.1024C184.199 46.1549 182.715 47.5988 182.675 49.5285C182.635 51.4844 184.334 53.0727 186.316 53.0333Z" fill="#4070DB"/>
            <path fill-rule="evenodd" clip-rule="evenodd" d="M162.877 24.4432C162.809 22.4348 161.245 20.9383 159.181 20.9908C157.239 21.0302 155.742 22.5398 155.675 24.4038C155.607 26.2941 157.307 27.9743 159.262 27.9874C160.84 28.0006 162.863 26.7929 162.877 24.4432Z" fill="#4070DB"/>
            <path fill-rule="evenodd" clip-rule="evenodd" d="M176.04 51.235C177.928 51.235 179.587 49.6992 179.587 47.8746C179.573 46.0106 178.09 44.3566 175.932 44.396C174.192 44.4353 172.533 45.748 172.506 47.8614C172.479 49.7123 174.152 51.2482 176.04 51.235Z" fill="#4070DB"/>
            <path fill-rule="evenodd" clip-rule="evenodd" d="M132.41 2.81007C134.258 2.78381 135.89 1.23484 135.809 -0.681676C135.728 -2.72946 133.975 -4.06839 132.208 -3.97651C130.28 -3.93713 128.783 -2.38815 128.823 -0.484761C128.877 1.39238 130.455 2.83632 132.41 2.81007Z" fill="#4070DB"/>
            <path fill-rule="evenodd" clip-rule="evenodd" d="M157.441 37.8064C159.383 37.7933 160.948 36.3362 160.961 34.446C160.975 32.5426 159.437 31.0461 157.509 31.0067C155.756 30.9673 154.002 32.3063 153.975 34.3672C153.948 36.4412 155.729 37.8195 157.441 37.8064Z" fill="#4070DB"/>
            <path fill-rule="evenodd" clip-rule="evenodd" d="M169.269 46.1682C169.323 44.2779 167.799 42.729 165.871 42.7027C163.955 42.6896 162.351 44.2254 162.351 46.0763C162.351 47.8222 163.861 49.358 165.668 49.4237C167.61 49.5155 169.215 48.0453 169.269 46.1682Z" fill="#4070DB"/>
            <path fill-rule="evenodd" clip-rule="evenodd" d="M152.586 22.7629C152.6 20.7676 150.793 19.3237 149.093 19.3105C147.192 19.3105 145.56 20.9252 145.546 22.7235C145.533 24.5744 147.205 26.2284 149.053 26.1496C150.806 26.2547 152.573 24.7057 152.586 22.7629Z" fill="#4070DB"/>
            <path fill-rule="evenodd" clip-rule="evenodd" d="M144.198 11.1326C144.225 9.33424 142.62 7.62775 140.718 7.66713C138.952 7.54899 137.185 9.05858 137.158 11.0145C137.131 13.1279 139.006 14.48 140.611 14.4931C142.647 14.5193 144.171 12.7997 144.198 11.1326Z" fill="#4070DB"/>
            <path fill-rule="evenodd" clip-rule="evenodd" d="M198.117 61.277C198.184 59.6361 196.728 57.9821 194.88 57.8771C192.641 57.759 191.252 59.5573 191.198 61.0538C191.131 62.7734 192.412 64.4799 194.543 64.5849C196.391 64.6768 198.076 63.1935 198.117 61.277Z" fill="#4070DB"/>
            <path fill-rule="evenodd" clip-rule="evenodd" d="M142.323 21.0828C142.363 19.2319 140.759 17.6436 138.843 17.6436C137.036 17.6567 135.485 19.1531 135.458 20.9253C135.418 22.7368 136.861 24.2332 138.695 24.3382C140.732 24.4564 142.296 22.763 142.323 21.0828Z" fill="#4070DB"/>
            <path fill-rule="evenodd" clip-rule="evenodd" d="M133.962 9.33428C134.002 7.52278 132.343 5.92129 130.455 5.96067C128.554 6.00005 127.043 7.62778 127.111 9.46554C127.165 10.8439 128.419 12.6291 130.59 12.616C132.384 12.5766 133.921 11.067 133.962 9.33428Z" fill="#4070DB"/>
            <path fill-rule="evenodd" clip-rule="evenodd" d="M187.894 59.5837C187.989 57.6803 186.316 56.0919 184.455 56.1576C182.675 56.0788 181.084 57.6803 181.043 59.3868C180.989 61.3821 182.769 62.8916 184.482 62.8391C186.262 62.7735 187.786 61.5133 187.894 59.5837Z" fill="#4070DB"/>
            <path fill-rule="evenodd" clip-rule="evenodd" d="M177.658 57.746C177.658 55.9083 175.972 54.3331 174.084 54.4381C172.331 54.53 170.834 56.0002 170.888 57.851C170.928 59.5181 172.425 61.0802 174.313 61.054C176.12 61.0015 177.658 59.4919 177.658 57.746Z" fill="#4070DB"/>
            <path fill-rule="evenodd" clip-rule="evenodd" d="M147.461 36.008C149.053 35.9555 150.793 34.5115 150.685 32.6081C150.725 30.8623 149.107 29.3264 147.327 29.3264C145.29 29.3395 143.793 30.9148 143.847 32.7394C143.901 34.669 145.546 36.0736 147.461 36.008Z" fill="#4070DB"/>
            <path fill-rule="evenodd" clip-rule="evenodd" d="M159.06 44.3698C159.087 42.3482 157.414 41.0749 155.796 41.0224C154.205 40.9699 152.303 42.1644 152.343 44.4091C152.37 46.2075 153.881 47.6383 155.729 47.6383C157.563 47.6252 159.046 46.1681 159.06 44.3698Z" fill="#4070DB"/>
            <path fill-rule="evenodd" clip-rule="evenodd" d="M125.452 -2.33556C125.465 -4.55399 123.577 -5.65666 122.147 -5.66979C120.489 -5.69604 118.789 -4.3571 118.762 -2.42745C118.749 -0.392794 120.475 0.880521 122.053 0.906775C123.887 0.933028 125.425 -0.53718 125.452 -2.33556Z" fill="#4070DB"/>
            <path fill-rule="evenodd" clip-rule="evenodd" d="M131.993 19.2713C131.993 17.4204 130.644 16.0421 128.675 15.9765C126.962 15.924 125.452 17.3679 125.357 19.0482C125.263 20.8203 126.746 22.3955 128.554 22.4612C130.388 22.5137 131.993 21.0566 131.993 19.2713Z" fill="#4070DB"/>
            <path fill-rule="evenodd" clip-rule="evenodd" d="M137.036 34.1439C138.843 34.1701 140.421 32.6868 140.448 30.9409C140.475 29.195 138.951 27.6592 137.144 27.6067C135.391 27.5673 133.759 29.1032 133.719 30.8359C133.692 32.5555 135.243 34.1176 137.036 34.1439Z" fill="#4070DB"/>
            <path fill-rule="evenodd" clip-rule="evenodd" d="M196.188 71.2403C196.269 69.5075 194.718 67.9323 192.911 67.8929C191.117 67.8667 189.459 69.4025 189.539 71.1352C189.62 73.1305 191.131 74.3644 192.938 74.3644C194.678 74.3776 196.121 72.9336 196.188 71.2403Z" fill="#4070DB"/>
            <path fill-rule="evenodd" clip-rule="evenodd" d="M206.397 72.8155C206.37 71.0172 204.806 69.5863 202.945 69.6389C201.192 69.6914 199.695 71.1353 199.722 72.8287C199.762 74.6533 201.003 76.0579 203.066 76.1235C204.887 76.1891 206.424 74.6139 206.397 72.8155Z" fill="#4070DB"/>
            <path fill-rule="evenodd" clip-rule="evenodd" d="M185.952 69.5075C186.033 67.8536 184.832 66.3309 182.648 66.1733C180.948 66.1865 179.397 67.6173 179.357 69.3107C179.33 70.9121 180.476 72.5924 182.675 72.6186C184.333 72.6317 185.844 71.516 185.952 69.5075Z" fill="#4070DB"/>
            <path fill-rule="evenodd" clip-rule="evenodd" d="M123.59 7.44402C123.55 5.77691 122.269 4.3592 120.327 4.3592C118.088 4.34607 116.955 6.22322 117.036 7.65405C117.117 9.33429 118.6 10.7651 120.327 10.7651C122.161 10.7651 123.631 9.26865 123.59 7.44402Z" fill="#4070DB"/>
            <path fill-rule="evenodd" clip-rule="evenodd" d="M167.368 55.974C167.354 53.8737 165.587 52.6791 163.969 52.7448C162.04 52.8235 160.692 54.3069 160.746 56.1315C160.786 57.7067 162.216 59.2294 164.036 59.2426C165.871 59.2819 167.381 57.7855 167.368 55.974Z" fill="#4070DB"/>
            <path fill-rule="evenodd" clip-rule="evenodd" d="M148.797 42.5056C148.837 40.9698 147.542 39.2502 145.411 39.3158C143.469 39.3814 142.256 40.7597 142.202 42.4531C142.148 44.2646 143.631 45.7479 145.465 45.7742C147.286 45.8004 148.823 44.2909 148.797 42.5056Z" fill="#4070DB"/>
            <path fill-rule="evenodd" clip-rule="evenodd" d="M175.689 67.5781C175.648 65.8453 174.232 64.5195 172.425 64.5195C170.699 64.5195 169.188 65.9504 169.215 67.6437C169.256 69.5209 170.78 70.8992 172.614 70.8204C174.232 70.7548 175.716 69.5471 175.689 67.5781Z" fill="#4070DB"/>
            <path fill-rule="evenodd" clip-rule="evenodd" d="M126.921 32.293C128.661 32.2799 130.131 30.7966 130.104 29.1163C130.064 27.3573 128.648 26.0053 126.868 26.0184C125.141 26.0315 123.685 27.3311 123.671 29.1689C123.644 30.8491 125.195 32.3062 126.921 32.293Z" fill="#4070DB"/>
            <path fill-rule="evenodd" clip-rule="evenodd" d="M157.105 54.3068C157.118 52.5346 155.756 51.1695 153.962 51.117C151.98 51.0513 150.577 52.6397 150.618 54.3461C150.645 56.0001 152.142 57.4704 153.881 57.4572C155.635 57.4441 157.091 56.0133 157.105 54.3068Z" fill="#4070DB"/>
            <path fill-rule="evenodd" clip-rule="evenodd" d="M138.534 40.8255C138.507 39.0403 137.023 37.6882 135.324 37.6882C133.49 37.6882 132.06 39.1453 132.1 40.7862C132.073 42.8996 133.935 43.9366 135.27 43.9497C136.983 43.9629 138.547 42.4927 138.534 40.8255Z" fill="#4070DB"/>
            <path fill-rule="evenodd" clip-rule="evenodd" d="M204.402 82.7658C204.415 81.1512 203.026 79.786 201.354 79.7204C199.519 79.6548 198.09 81.1119 198.063 82.7265C198.036 84.4592 199.452 85.89 201.205 85.8638C202.864 85.9163 204.388 84.6298 204.402 82.7658Z" fill="#4070DB"/>
            <path fill-rule="evenodd" clip-rule="evenodd" d="M146.855 52.5871C146.936 51.0381 145.6 49.4235 143.712 49.3841C141.892 49.3579 140.408 50.8412 140.489 52.4689C140.422 54.0573 141.784 55.6325 143.699 55.5669C145.654 55.5144 146.787 54.031 146.855 52.5871Z" fill="#4070DB"/>
            <path fill-rule="evenodd" clip-rule="evenodd" d="M165.425 66.0291C165.547 64.2963 164.009 62.8524 162.296 62.8524C160.395 62.8393 159.046 64.4013 159.06 65.9634C159.06 67.5518 160.449 68.9826 162.108 69.0482C163.942 69.127 165.452 67.6699 165.425 66.0291Z" fill="#4070DB"/>
            <path fill-rule="evenodd" clip-rule="evenodd" d="M121.648 17.5253C121.675 15.8451 120.232 14.3224 118.452 14.4011C116.564 14.3486 115.215 15.9632 115.269 17.5384C115.31 19.0611 116.523 20.492 118.371 20.5707C120.232 20.6757 121.635 19.1399 121.648 17.5253Z" fill="#4070DB"/>
            <path fill-rule="evenodd" clip-rule="evenodd" d="M113.287 5.75047C113.327 4.30652 111.965 2.6919 110.01 2.74441C108.202 2.79692 106.854 4.41152 106.962 5.98674C107.056 7.39132 108.189 8.88778 110.144 8.88778C112.235 8.90091 113.368 7.10253 113.287 5.75047Z" fill="#4070DB"/>
            <path fill-rule="evenodd" clip-rule="evenodd" d="M128.311 39.1453C128.378 37.1106 126.517 35.9555 125.182 35.9423C123.685 35.9161 121.959 37.0581 121.905 39.0009C121.851 40.6942 123.294 42.1776 125.034 42.217C126.733 42.2563 128.257 40.878 128.311 39.1453Z" fill="#4070DB"/>
            <path fill-rule="evenodd" clip-rule="evenodd" d="M116.578 30.5471C118.115 30.6258 119.855 29.3788 119.855 27.5148C119.99 25.5851 118.263 24.2987 116.807 24.2724C115.256 24.2462 113.651 25.3226 113.462 27.2916C113.287 28.8668 114.851 30.4552 116.578 30.5471Z" fill="#4070DB"/>
            <path fill-rule="evenodd" clip-rule="evenodd" d="M155.284 64.2043C155.297 62.4453 153.908 61.067 152.128 61.0538C150.321 61.0276 148.918 62.3534 148.837 64.0993C148.783 65.4645 149.889 67.2366 152.007 67.2891C153.989 67.3154 155.324 65.6614 155.284 64.2043Z" fill="#4070DB"/>
            <path fill-rule="evenodd" clip-rule="evenodd" d="M194.165 81.0724C194.165 79.2084 192.709 77.9876 190.902 78.0138C189.162 78.0926 187.8 79.4315 187.894 81.2956C187.975 82.8314 189.351 84.2097 191.131 84.131C192.83 84.0522 194.165 82.8576 194.165 81.0724Z" fill="#4070DB"/>
            <path fill-rule="evenodd" clip-rule="evenodd" d="M136.713 50.8412C136.767 48.9247 135.095 47.612 133.571 47.6251C131.763 47.6382 130.347 48.9903 130.347 50.7362C130.307 52.6658 132.155 53.9391 133.584 53.8472C135.486 53.7291 136.659 52.3901 136.713 50.8412Z" fill="#4070DB"/>
            <path fill-rule="evenodd" clip-rule="evenodd" d="M184.01 79.3266C183.969 77.5413 182.513 76.3467 180.989 76.3074C179.222 76.2549 177.752 77.6332 177.779 79.3397C177.793 80.9411 178.979 82.3063 180.787 82.372C182.567 82.4245 183.943 81.1774 184.01 79.3266Z" fill="#4070DB"/>
            <path fill-rule="evenodd" clip-rule="evenodd" d="M145.034 62.3009C145.034 60.7257 143.497 59.3342 141.878 59.3342C140.098 59.3342 138.668 60.7519 138.709 62.4847C138.749 64.0468 140.219 65.5038 141.851 65.4645C143.82 65.412 145.034 63.9286 145.034 62.3009Z" fill="#4070DB"/>
            <path fill-rule="evenodd" clip-rule="evenodd" d="M111.493 15.8583C111.547 14.1124 110.185 12.7078 108.405 12.6553C106.908 12.5766 105.195 13.758 105.168 15.7401C105.141 17.5254 106.597 18.8118 108.391 18.8512C109.983 18.8774 111.439 17.4204 111.493 15.8583Z" fill="#4070DB"/>
            <path fill-rule="evenodd" clip-rule="evenodd" d="M160.274 78.9326C161.946 79.1295 163.565 77.633 163.592 75.9397C163.632 74.1807 162.243 72.8155 160.436 72.8023C158.817 72.7892 157.307 74.1938 157.334 75.7821C157.361 77.3311 158.278 78.6832 160.274 78.9326Z" fill="#4070DB"/>
            <path fill-rule="evenodd" clip-rule="evenodd" d="M170.82 80.6916C172.695 80.5603 173.787 79.2083 173.828 77.6068C173.855 75.7822 172.25 74.4695 170.645 74.4957C169.215 74.522 167.503 75.6247 167.516 77.6856C167.651 79.7202 169.202 80.7966 170.82 80.6916Z" fill="#4070DB"/>
            <path fill-rule="evenodd" clip-rule="evenodd" d="M103.037 4.14901C103.091 2.35064 101.594 1.11671 100.11 1.02482C98.4111 0.919805 96.8332 2.32437 96.7792 3.99148C96.7253 5.63233 98.2627 7.19444 99.9485 7.11567C101.702 7.03691 102.996 5.84238 103.037 4.14901Z" fill="#4070DB"/>
            <path fill-rule="evenodd" clip-rule="evenodd" d="M117.967 37.4256C118.047 35.9947 117.022 34.472 115.067 34.3014C113.705 34.1832 111.979 35.2465 111.871 37.1237C111.763 38.9614 113.152 40.3397 114.878 40.3529C116.739 40.3791 117.967 38.8958 117.967 37.4256Z" fill="#4070DB"/>
            <path fill-rule="evenodd" clip-rule="evenodd" d="M150.172 77.0687C152.249 77.1344 153.463 75.3885 153.382 73.997C153.342 72.4218 151.872 71.0041 150.28 71.0304C148.635 71.0566 147.151 72.4481 147.192 74.0102C147.246 75.7561 148.406 77.0162 150.172 77.0687Z" fill="#4070DB"/>
            <path fill-rule="evenodd" clip-rule="evenodd" d="M106.503 28.6962C108.162 28.6437 109.564 27.2654 109.578 25.6901C109.591 24.1149 108.243 22.7366 106.557 22.6185C104.938 22.5003 103.293 24.1018 103.36 25.7427C103.441 27.331 104.952 28.7487 106.503 28.6962Z" fill="#4070DB"/>
            <path fill-rule="evenodd" clip-rule="evenodd" d="M126.396 48.9773C126.396 47.3627 125.034 45.9975 123.375 45.945C121.81 45.8925 120.313 47.3233 120.232 48.8854C120.151 50.5919 121.797 52.0884 123.388 52.0227C125.061 51.9702 126.396 50.605 126.396 48.9773Z" fill="#4070DB"/>
            <path fill-rule="evenodd" clip-rule="evenodd" d="M134.73 60.6601C134.73 59.0455 133.274 57.6147 131.682 57.641C130.023 57.6804 128.594 59.0718 128.594 60.647C128.594 62.2222 130.023 63.6268 131.669 63.6662C133.26 63.7056 134.717 62.2747 134.73 60.6601Z" fill="#4070DB"/>
            <path fill-rule="evenodd" clip-rule="evenodd" d="M98.0199 16.9871C99.6113 17.0658 101.162 15.6481 101.203 14.0466C101.135 12.5896 100.137 11.1062 98.1143 11.0275C96.5903 10.9618 95.1877 12.3008 95.0664 13.8366C94.945 15.3856 96.3611 16.8952 98.0199 16.9871Z" fill="#4070DB"/>
            <path fill-rule="evenodd" clip-rule="evenodd" d="M189.418 93.9762C191.225 93.8843 192.398 92.3878 192.331 90.8651C192.25 89.2111 190.767 87.8984 189.148 88.0034C187.274 87.9641 186.114 89.7231 186.114 91.0226C186.114 92.3747 187.328 94.0943 189.418 93.9762Z" fill="#4070DB"/>
            <path fill-rule="evenodd" clip-rule="evenodd" d="M199.466 95.7219C201.084 95.7613 202.527 94.6061 202.541 92.7552C202.554 90.8518 201.057 89.7492 199.52 89.7361C197.699 89.7361 196.269 91.0881 196.323 92.8078C196.364 94.4749 197.726 95.7219 199.466 95.7219Z" fill="#4070DB"/>
            <path fill-rule="evenodd" clip-rule="evenodd" d="M178.979 92.2565C180.827 92.2565 182.108 90.8782 182.068 89.303C182.081 87.6096 180.773 86.2969 179.074 86.2444C177.766 86.205 175.972 87.3208 175.958 89.2111C175.931 90.7601 177.24 92.2565 178.979 92.2565Z" fill="#4070DB"/>
            <path fill-rule="evenodd" clip-rule="evenodd" d="M140.192 75.2834C141.757 75.1915 143.078 73.8919 143.132 72.3823C143.186 70.8334 141.743 69.3894 140.098 69.3632C138.466 69.3369 137.05 70.7546 137.09 72.3692C137.117 73.9838 138.601 75.3752 140.192 75.2834Z" fill="#4070DB"/>
            <path fill-rule="evenodd" clip-rule="evenodd" d="M171.899 87.6489C171.993 86.0343 170.739 84.6035 168.972 84.551C167.206 84.4985 165.897 85.9293 165.857 87.4914C165.817 88.8697 167.003 90.4974 168.918 90.4712C170.739 90.4581 171.939 88.9485 171.899 87.6489Z" fill="#4070DB"/>
            <path fill-rule="evenodd" clip-rule="evenodd" d="M89.6717 5.23859C91.6408 5.18608 92.7062 3.7815 92.6523 2.25879C92.6388 0.696692 91.425 -0.629124 89.5234 -0.576617C87.9859 -0.524109 86.6508 0.932963 86.7047 2.39004C86.7721 3.91276 88.1612 5.27797 89.6717 5.23859Z" fill="#4070DB"/>
            <path fill-rule="evenodd" clip-rule="evenodd" d="M107.703 35.6536C107.73 34.039 106.354 32.7263 104.655 32.7001C103.199 32.6738 101.675 34.0259 101.756 35.5486C101.675 36.8875 102.673 38.4103 104.534 38.5021C106.287 38.594 107.676 37.1763 107.703 35.6536Z" fill="#4070DB"/>
            <path fill-rule="evenodd" clip-rule="evenodd" d="M161.676 85.785C161.757 84.446 160.611 82.8183 158.642 82.8052C156.754 82.8052 155.769 84.3148 155.715 85.6406C155.648 87.1502 156.983 88.5416 158.507 88.5678C160.287 88.5941 161.663 87.4258 161.676 85.785Z" fill="#4070DB"/>
            <path fill-rule="evenodd" clip-rule="evenodd" d="M124.44 58.9535C124.44 57.3258 123.267 56.1181 121.608 56.0919C119.774 56 118.681 57.3389 118.547 58.7829C118.412 60.3056 119.909 61.8414 121.554 61.8152C123.253 61.7889 124.44 60.45 124.44 58.9535Z" fill="#4070DB"/>
            <path fill-rule="evenodd" clip-rule="evenodd" d="M200.598 102.705C200.571 101.038 199.169 99.6994 197.523 99.765C195.999 99.8175 194.57 101.261 194.691 102.719C194.853 104.648 196.31 105.554 197.658 105.515C199.182 105.593 200.612 104.189 200.598 102.705Z" fill="#4070DB"/>
            <path fill-rule="evenodd" clip-rule="evenodd" d="M190.348 100.881C190.335 99.3187 189 97.9535 187.462 98.0323C185.493 98.1373 184.401 99.5944 184.482 101.078C184.563 102.81 186.073 103.795 187.53 103.782C188.919 103.769 190.47 102.509 190.348 100.881Z" fill="#4070DB"/>
            <path fill-rule="evenodd" clip-rule="evenodd" d="M116.078 47.3101C116.173 45.9055 114.891 44.4222 113.273 44.409C111.506 44.3959 110.158 45.5642 110.117 47.205C110.077 48.6621 111.371 50.2374 113.165 50.1586C115.107 50.0667 116.078 48.6621 116.078 47.3101Z" fill="#4070DB"/>
            <path fill-rule="evenodd" clip-rule="evenodd" d="M151.454 84.0258C151.481 82.5294 150.159 81.2167 148.541 81.1511C146.936 81.0854 145.506 82.5425 145.587 83.9602C145.479 85.4829 146.976 86.8744 148.46 86.835C150.092 86.7956 151.427 85.5486 151.454 84.0258Z" fill="#4070DB"/>
            <path fill-rule="evenodd" clip-rule="evenodd" d="M99.2205 23.8656C99.207 22.0147 97.683 21.0827 96.2939 21.0958C94.6216 21.109 93.4213 22.251 93.4078 23.8919C93.3538 25.7296 94.7429 26.8585 96.4287 26.7929C98.1955 26.7273 99.2339 25.4933 99.2205 23.8656Z" fill="#4070DB"/>
            <path fill-rule="evenodd" clip-rule="evenodd" d="M180.153 99.2925C180.193 97.7173 178.993 96.4571 177.348 96.339C175.864 96.2339 174.421 97.5335 174.286 99.0956C174.165 100.553 175.541 101.918 177.132 102.01C178.912 102.089 180.207 100.579 180.153 99.2925Z" fill="#4070DB"/>
            <path fill-rule="evenodd" clip-rule="evenodd" d="M169.93 97.3759C169.957 95.8926 168.528 94.5405 166.977 94.5668C165.439 94.593 164.064 96.0238 164.145 97.5072C164.225 98.9643 165.48 100.133 166.99 100.146C168.622 100.172 169.917 98.9643 169.93 97.3759Z" fill="#4070DB"/>
            <path fill-rule="evenodd" clip-rule="evenodd" d="M105.815 45.6432C105.869 43.9236 104.399 42.729 102.996 42.729C101.135 42.6109 100.029 44.3042 100.029 45.4856C100.016 46.9558 101.432 48.3604 102.956 48.3342C104.399 48.321 105.775 47.0477 105.815 45.6432Z" fill="#4070DB"/>
            <path fill-rule="evenodd" clip-rule="evenodd" d="M129.835 73.4062C131.669 73.4587 132.707 72.0672 132.761 70.6233C132.815 69.0481 131.386 67.696 129.902 67.7748C128.284 67.7091 126.949 68.9824 126.975 70.5445C126.989 72.2773 128.122 73.3668 129.835 73.4062Z" fill="#4070DB"/>
            <path fill-rule="evenodd" clip-rule="evenodd" d="M114.177 57.4047C114.298 55.9476 113.139 54.5562 111.695 54.4118C110.077 54.2542 108.715 55.3306 108.486 56.9321C108.283 58.3629 109.659 59.8857 111.21 59.9513C112.653 60.03 114.056 58.8224 114.177 57.4047Z" fill="#4070DB"/>
            <path fill-rule="evenodd" clip-rule="evenodd" d="M159.721 95.7088C159.775 94.1992 158.426 92.9128 156.794 92.9259C155.27 92.939 154.03 94.1073 153.976 95.5906C153.922 97.1133 155.27 98.3866 156.902 98.3735C158.426 98.3473 159.667 97.179 159.721 95.7088Z" fill="#4070DB"/>
            <path fill-rule="evenodd" clip-rule="evenodd" d="M97.3324 33.6451C97.211 32.1223 95.768 30.9934 94.3923 31.0853C92.8818 31.1247 91.6815 32.3586 91.6681 33.8288C91.6546 35.5878 93.2055 36.6774 94.5946 36.6117C96.2535 36.533 97.4673 35.2334 97.3324 33.6451Z" fill="#4070DB"/>
            <path fill-rule="evenodd" clip-rule="evenodd" d="M90.7779 12.5109C90.9397 10.7519 89.4427 9.47861 88.121 9.47861C86.4082 9.41298 85.1675 10.5156 85.1001 12.1302C85.0326 13.8105 86.152 14.9656 87.8513 15.0575C89.3348 15.1494 90.643 13.9549 90.7779 12.5109Z" fill="#4070DB"/>
            <path fill-rule="evenodd" clip-rule="evenodd" d="M79.5164 3.28279C81.2292 3.37467 82.3621 1.79945 82.3621 0.657418C82.3621 -0.550251 81.2966 -2.09923 79.6378 -2.13861C78.2756 -2.16486 76.6573 -1.25909 76.7247 0.644299C76.7786 2.33766 78.0059 3.30904 79.5164 3.28279Z" fill="#4070DB"/>
            <path fill-rule="evenodd" clip-rule="evenodd" d="M141.123 82.1093C141.042 80.4422 139.626 79.4708 138.277 79.4971C136.659 79.5234 135.431 80.7835 135.458 82.3718C135.485 83.5664 136.645 85.0497 138.331 84.9578C140.017 84.9972 141.204 83.7239 141.123 82.1093Z" fill="#4070DB"/>
            <path fill-rule="evenodd" clip-rule="evenodd" d="M149.471 93.9498C149.431 92.3746 148.365 91.2982 146.747 91.2325C145.466 91.18 143.996 92.1383 143.928 93.871C143.861 95.3281 145.156 96.5489 146.68 96.5621C148.365 96.6539 149.498 95.2625 149.471 93.9498Z" fill="#4070DB"/>
            <path fill-rule="evenodd" clip-rule="evenodd" d="M198.602 112.55C198.575 111.002 197.375 109.846 195.811 109.886C194.273 109.925 193.073 111.159 193.073 112.642C193.086 114.283 194.664 115.32 195.905 115.32C197.186 115.333 198.724 114.113 198.602 112.55Z" fill="#4070DB"/>
            <path fill-rule="evenodd" clip-rule="evenodd" d="M119.679 71.5685C121.23 71.6079 122.525 70.2033 122.498 68.8906C122.539 67.4335 121.325 66.1865 119.814 66.0946C118.425 66.0027 116.982 67.1972 116.928 68.6806C116.861 70.3608 117.98 71.5291 119.679 71.5685Z" fill="#4070DB"/>
            <path fill-rule="evenodd" clip-rule="evenodd" d="M109.578 69.7572C110.913 69.7703 112.208 68.497 112.248 67.1843C112.289 65.7535 110.967 64.4146 109.537 64.4146C108.013 64.4146 106.813 65.6222 106.813 67.1318C106.773 68.5889 107.852 69.7441 109.578 69.7572Z" fill="#4070DB"/>
            <path fill-rule="evenodd" clip-rule="evenodd" d="M88.903 22.4349C89.1188 20.6102 87.5274 19.442 86.3001 19.3895C84.6413 19.3107 83.387 20.689 83.36 21.9098C83.1982 23.5507 84.6547 24.7714 85.8685 24.8108C87.5139 24.8765 88.7412 23.9182 88.903 22.4349Z" fill="#4070DB"/>
            <path fill-rule="evenodd" clip-rule="evenodd" d="M188.407 110.923C188.501 109.505 187.139 108.179 185.709 108.192C184.118 108.219 182.985 109.269 182.904 110.792C182.837 112.314 184.266 113.548 185.588 113.535C187.112 113.548 188.393 112.393 188.407 110.923Z" fill="#4070DB"/>
            <path fill-rule="evenodd" clip-rule="evenodd" d="M130.846 80.4421C130.927 79.0113 129.457 77.7118 128.054 77.7905C126.517 77.8693 125.317 79.077 125.344 80.5472C125.371 82.083 126.544 83.1463 128.162 83.1594C129.754 83.1594 130.927 81.8598 130.846 80.4421Z" fill="#4070DB"/>
            <path fill-rule="evenodd" clip-rule="evenodd" d="M92.7064 46.3256C94.3653 46.3256 95.3633 45.2886 95.3903 43.6609C95.4172 42.0725 93.9202 41.0618 92.8278 41.0224C91.3713 40.983 89.9687 42.2432 89.9552 43.6346C89.9417 45.118 91.1959 46.3256 92.7064 46.3256Z" fill="#4070DB"/>
            <path fill-rule="evenodd" clip-rule="evenodd" d="M80.5145 10.555C80.5145 9.16351 79.3951 7.90334 78.0194 7.78519C76.4685 7.66705 75.1064 8.78284 75.0389 10.253C74.958 11.8414 76.0369 13.0097 77.6014 13.1147C79.3007 13.2197 80.5145 11.7495 80.5145 10.555Z" fill="#4070DB"/>
            <path fill-rule="evenodd" clip-rule="evenodd" d="M178.238 108.98C178.197 107.772 176.97 106.342 175.284 106.447C174.138 106.512 172.735 107.628 172.735 109.151C172.749 110.568 174.111 111.907 175.568 111.789C177.105 111.737 178.278 110.463 178.238 108.98Z" fill="#4070DB"/>
            <path fill-rule="evenodd" clip-rule="evenodd" d="M101.041 57.9955C102.848 58.1136 103.846 56.6697 103.887 55.4226C103.927 54.0312 102.538 52.6791 101.122 52.6922C99.7734 52.7054 98.4383 53.9262 98.4248 55.2388C98.3978 56.9191 99.5711 58.0086 101.041 57.9955Z" fill="#4070DB"/>
            <path fill-rule="evenodd" clip-rule="evenodd" d="M87.0016 32.0698C87.069 30.3764 85.4371 29.3394 84.2233 29.405C82.7533 29.4838 81.6609 30.6127 81.607 32.0173C81.5665 33.3956 82.7533 34.5902 84.1694 34.6295C85.7878 34.682 86.9746 33.6056 87.0016 32.0698Z" fill="#4070DB"/>
            <path fill-rule="evenodd" clip-rule="evenodd" d="M139.154 92.1645C139.167 90.6943 137.859 89.4603 136.376 89.5128C135.014 89.5654 133.732 90.8518 133.786 92.1514C133.84 93.4115 134.838 94.7242 136.376 94.7636C138.021 94.8161 139.208 93.5559 139.154 92.1645Z" fill="#4070DB"/>
            <path fill-rule="evenodd" clip-rule="evenodd" d="M167.974 107.405C168.042 105.738 166.585 104.674 165.25 104.688C163.78 104.701 162.661 105.777 162.62 107.221C162.58 108.639 163.672 109.833 165.075 109.938C166.248 110.03 167.893 109.216 167.974 107.405Z" fill="#4070DB"/>
            <path fill-rule="evenodd" clip-rule="evenodd" d="M78.721 20.5577C78.7749 18.9169 77.4398 17.6304 75.9158 17.6698C74.3649 17.6961 73.2455 18.9694 73.1915 20.4134C73.1376 21.6735 74.4727 23.0256 75.7809 23.0387C77.3319 23.0518 78.6805 21.9623 78.721 20.5577Z" fill="#4070DB"/>
            <path fill-rule="evenodd" clip-rule="evenodd" d="M196.768 122.448C196.835 121.122 195.392 119.849 194.152 119.875C192.695 119.902 191.346 120.952 191.333 122.514C191.306 124.063 192.601 125.192 194.098 125.192C195.595 125.192 196.795 123.905 196.768 122.448Z" fill="#4070DB"/>
            <path fill-rule="evenodd" clip-rule="evenodd" d="M120.583 78.8672C120.556 77.3051 119.45 76.1499 117.831 76.2024C116.213 76.2549 115.283 77.3969 115.215 78.7753C115.161 79.9961 116.388 81.3875 117.845 81.3219C119.477 81.4269 120.61 79.9436 120.583 78.8672Z" fill="#4070DB"/>
            <path fill-rule="evenodd" clip-rule="evenodd" d="M71.9908 -1.19346C72.0313 -2.58491 70.6017 -3.92384 69.1721 -3.83195C67.7695 -3.74007 66.6906 -2.53241 66.7311 -1.11471C66.7715 0.342372 67.9179 1.40565 69.3879 1.36627C70.8445 1.34001 71.9504 0.263615 71.9908 -1.19346Z" fill="#4070DB"/>
            <path fill-rule="evenodd" clip-rule="evenodd" d="M157.725 105.606C157.779 104.215 156.363 102.876 154.92 102.955C153.517 103.033 152.425 104.228 152.452 105.659C152.492 107.116 153.598 108.179 155.082 108.166C156.552 108.153 157.671 107.063 157.725 105.606Z" fill="#4070DB"/>
            <path fill-rule="evenodd" clip-rule="evenodd" d="M186.573 120.847C186.613 119.442 185.251 118.077 183.808 118.156C182.324 118.234 181.205 119.311 181.165 120.728C181.124 122.212 182.378 123.419 183.916 123.419C185.291 123.419 186.532 122.172 186.573 120.847Z" fill="#4070DB"/>
            <path fill-rule="evenodd" clip-rule="evenodd" d="M173.841 121.595C175.473 121.437 176.336 120.23 176.377 118.891C176.188 117.394 175.096 116.344 173.626 116.383C171.859 116.423 170.834 117.932 170.996 119.206C171.225 120.86 172.614 121.713 173.841 121.595Z" fill="#4070DB"/>
            <path fill-rule="evenodd" clip-rule="evenodd" d="M102.107 65.4382C102.228 64.2305 100.879 62.7603 99.5981 62.6553C97.9932 62.524 96.6445 63.7974 96.685 65.412C96.7119 66.8559 97.8178 67.8798 99.3553 67.8929C101.095 67.9848 101.985 66.5408 102.107 65.4382Z" fill="#4070DB"/>
            <path fill-rule="evenodd" clip-rule="evenodd" d="M67.5001 11.3162C69.0375 11.3162 70.2243 10.1742 70.2513 8.65149C70.2783 7.45695 68.9431 6.15739 67.581 6.0655C66.2054 5.97362 64.9107 7.31256 64.8837 8.78277C64.8432 10.0429 66.2188 11.395 67.5001 11.3162Z" fill="#4070DB"/>
            <path fill-rule="evenodd" clip-rule="evenodd" d="M128.998 90.4843C128.904 88.6072 127.704 87.8721 126.261 87.7802C125.02 87.7014 123.671 89.0273 123.55 90.3662C123.442 91.7183 124.818 93.0309 126.328 93.0178C127.731 93.1228 129.066 91.692 128.998 90.4843Z" fill="#4070DB"/>
            <path fill-rule="evenodd" clip-rule="evenodd" d="M147.192 105.121C147.92 103.756 147.448 102.207 146.059 101.511C145.654 101.314 145.236 101.091 144.764 101.17C143.496 101.366 142.175 102.22 142.255 103.847C142.255 105.055 142.633 105.685 143.645 106.171C144.98 106.801 146.531 106.342 147.192 105.121Z" fill="#4070DB"/>
            <path fill-rule="evenodd" clip-rule="evenodd" d="M163.632 119.823C165.021 119.744 166.208 118.458 166.127 117.119C166.059 115.859 164.589 114.572 163.322 114.625C162 114.69 160.719 116.108 160.84 117.368C160.975 118.76 162.283 119.902 163.632 119.823Z" fill="#4070DB"/>
            <path fill-rule="evenodd" clip-rule="evenodd" d="M93.3538 54.6743C93.6775 53.8079 93.7045 52.9153 93.1245 52.1014C92.5851 51.3532 91.8298 51.0906 90.7104 51.13C90.7779 51.13 90.6295 51.13 90.4677 51.1431C89.3348 51.235 88.4447 52.0752 88.3638 53.1647C88.3233 53.611 88.3368 54.0704 88.4312 54.5036C88.6066 55.2912 89.146 55.8294 89.9147 56.0788C90.3328 56.2101 90.8318 56.2364 91.2769 56.197C92.2749 56.1182 93.0166 55.5931 93.3538 54.6743Z" fill="#4070DB"/>
            <path fill-rule="evenodd" clip-rule="evenodd" d="M110.05 75.7692C109.267 74.4959 107.622 74.0496 106.273 74.824C105.262 75.4016 104.75 76.6487 105.114 77.712C105.41 78.5783 106.408 79.6285 107.717 79.5366C109.47 79.7204 111.129 77.5282 110.05 75.7692Z" fill="#4070DB"/>
            <path fill-rule="evenodd" clip-rule="evenodd" d="M82.605 44.5534C83.9266 44.5796 85.3158 43.2013 85.1944 41.9543C85.1674 40.5103 84.075 39.5127 82.5375 39.4602C80.7573 39.3945 79.9077 40.8385 79.7998 41.928C79.6514 43.2801 81.0675 44.5403 82.605 44.5534Z" fill="#4070DB"/>
            <path fill-rule="evenodd" clip-rule="evenodd" d="M74.0951 32.8575C75.5516 32.8838 76.7789 31.7548 76.8733 30.4159C76.9542 29.3264 75.7404 27.738 74.2569 27.8299C72.4902 27.7118 71.6135 29.1295 71.4922 30.2715C71.3438 31.5448 72.6925 32.8444 74.0951 32.8575Z" fill="#4070DB"/>
            <path fill-rule="evenodd" clip-rule="evenodd" d="M118.776 88.3971C118.681 87.2026 117.413 86.1655 116.078 86.1655C114.676 86.1787 113.367 87.3863 113.448 88.699C113.502 89.7491 114.419 91.2719 116.146 91.1669C117.629 91.1537 118.883 89.8279 118.776 88.3971Z" fill="#4070DB"/>
            <path fill-rule="evenodd" clip-rule="evenodd" d="M74.9308 40.2479C74.8769 39.1978 73.9868 37.675 72.247 37.7801C70.8579 37.8063 69.5497 39.1059 69.698 40.366C69.8329 41.4687 70.7365 42.847 72.4763 42.7289C73.744 42.637 74.9848 41.4556 74.9308 40.2479Z" fill="#4070DB"/>
            <path fill-rule="evenodd" clip-rule="evenodd" d="M137.266 102.653C137.535 101.327 136.672 99.5288 134.784 99.6338C133.692 99.6207 132.923 100.001 132.464 100.802C132.073 101.498 132.087 102.246 132.316 102.981C132.64 104.058 133.773 104.727 135.013 104.622C135.998 104.543 137.063 103.585 137.266 102.653Z" fill="#4070DB"/>
            <path fill-rule="evenodd" clip-rule="evenodd" d="M67.9317 19.9801C68.134 19.5994 68.161 19.14 68.2284 18.9037C68.2149 18.1817 68.1745 17.6698 67.8643 17.2235C67.2574 16.3571 66.2459 16.0158 65.0456 16.2783C64.2094 16.4621 63.2654 17.4598 63.144 18.2999C63.1305 18.4443 63.117 18.6018 63.144 18.7462C63.2654 19.5863 63.6565 20.282 64.3713 20.794C65.4367 21.5422 67.3383 21.1353 67.9317 19.9801Z" fill="#4070DB"/>
            <path fill-rule="evenodd" clip-rule="evenodd" d="M153.369 118.064C154.731 117.959 155.796 116.764 155.783 115.347C155.769 114.152 154.785 112.997 153.247 113.089C151.723 113.115 150.698 114.152 150.658 115.609C150.644 116.751 152.006 118.169 153.369 118.064Z" fill="#4070DB"/>
            <path fill-rule="evenodd" clip-rule="evenodd" d="M99.9756 75.4278C100.07 73.9576 99.0316 72.8286 97.5481 72.7761C96.159 72.6317 94.8777 74.1151 94.8912 75.2703C94.9047 76.386 96.1724 77.725 97.3997 77.7118C98.8158 77.6987 99.8947 76.7667 99.9756 75.4278Z" fill="#4070DB"/>
            <path fill-rule="evenodd" clip-rule="evenodd" d="M91.6814 63.6136C91.6949 62.1303 90.616 61.1327 89.0785 61.0802C87.8917 61.0408 86.57 62.406 86.5565 63.5218C86.5296 64.7819 87.9456 66.0684 88.9841 66.0552C90.5216 66.0552 91.6544 65.0707 91.6814 63.6136Z" fill="#4070DB"/>
            <path fill-rule="evenodd" clip-rule="evenodd" d="M83.3331 51.9572C83.36 50.7758 82.0519 49.3449 80.6897 49.4368C79.3006 49.5287 78.2621 50.5132 78.2487 51.8653C78.2352 53.3355 79.3141 54.3988 80.8246 54.3725C82.0519 54.4513 83.3196 53.0598 83.3331 51.9572Z" fill="#4070DB"/>
            <path fill-rule="evenodd" clip-rule="evenodd" d="M108.324 86.9663C108.337 85.7193 107.825 84.971 106.665 84.5904C105.681 84.2491 104.629 84.551 103.981 85.3255C103.239 86.2312 103.145 87.0845 103.658 88.0165C103.995 88.6335 104.48 89.0929 105.182 89.2898C106.436 89.6311 108.432 88.8566 108.324 86.9663Z" fill="#4070DB"/>
            <path fill-rule="evenodd" clip-rule="evenodd" d="M202.365 136.546C203.174 136.533 203.673 136.428 204.011 136.139C205.454 134.892 205.238 133.12 203.822 132.123C203.013 131.558 202.109 131.506 201.246 132.057C201.057 132.175 200.868 132.319 200.693 132.451C199.695 133.251 199.83 135.024 200.464 135.719C201.003 136.336 201.664 136.586 202.365 136.546Z" fill="#4070DB"/>
            <path fill-rule="evenodd" clip-rule="evenodd" d="M127.124 100.264C127.083 99.2794 125.897 97.8092 124.548 97.9011C123.065 97.9011 121.986 99.0037 122.04 100.474C122.08 101.826 123.145 102.784 124.535 102.85C125.87 102.889 127.178 101.485 127.124 100.264Z" fill="#4070DB"/>
            <path fill-rule="evenodd" clip-rule="evenodd" d="M143.146 116.265C144.441 116.173 145.587 115.045 145.574 113.771C145.56 112.419 144.508 111.382 143.106 111.356C141.784 111.33 140.624 112.445 140.53 113.706C140.435 115.005 141.919 116.357 143.146 116.265Z" fill="#4070DB"/>
            <path fill-rule="evenodd" clip-rule="evenodd" d="M57.304 9.47859C58.5043 9.49171 59.853 8.2184 59.8395 7.08949C59.8125 5.63241 58.774 4.56915 57.2501 4.5954C56.1172 4.49038 54.782 5.89495 54.7955 7.05011C54.809 8.20527 56.1577 9.46546 57.304 9.47859Z" fill="#4070DB"/>
            <path fill-rule="evenodd" clip-rule="evenodd" d="M65.9353 30.0746C66.0702 29.904 66.1916 29.6939 66.2455 29.4839C66.3264 29.1951 66.3399 28.8932 66.3669 28.7619C66.3669 27.4099 65.9488 26.7667 64.8699 26.3203C63.9528 25.9397 62.8739 26.1891 62.1321 26.9373C61.3769 27.6987 61.2285 28.6832 61.714 29.6152C62.5502 31.2298 64.7755 31.4792 65.9353 30.0746Z" fill="#4070DB"/>
            <path fill-rule="evenodd" clip-rule="evenodd" d="M132.883 114.454C134.07 114.546 135.391 113.194 135.405 112.038C135.405 110.896 134.096 109.597 132.896 109.597C131.723 109.597 130.388 110.883 130.388 112.038C130.388 113.207 131.723 114.546 132.883 114.454Z" fill="#4070DB"/>
            <path fill-rule="evenodd" clip-rule="evenodd" d="M193.936 134.131C194.206 133.882 194.435 133.567 194.61 133.252C194.88 132.779 194.893 132.267 194.664 131.755C194.408 131.191 194.03 130.731 193.504 130.416C193.059 130.141 192.533 129.891 191.994 129.996C190.51 130.285 189.742 131.23 189.769 132.412C189.755 133.029 189.876 133.593 190.321 134.052C191.468 135.194 192.776 135.208 193.936 134.131Z" fill="#4070DB"/>
            <path fill-rule="evenodd" clip-rule="evenodd" d="M116.86 98.5705C116.86 97.3628 115.647 96.2076 114.338 96.1551C113.03 96.1026 111.924 97.2053 111.924 98.5705C111.924 99.9357 113.03 101.038 114.338 100.986C115.66 100.933 116.874 99.765 116.86 98.5705Z" fill="#4070DB"/>
            <path fill-rule="evenodd" clip-rule="evenodd" d="M89.7796 73.5244C89.8066 72.3692 88.6872 71.0828 87.5678 71.0828C86.0169 71.0828 85.0728 72.0673 84.884 73.3406C84.7222 74.522 86.0034 75.8478 87.2576 75.8609C88.6737 75.8872 89.7526 74.8895 89.7796 73.5244Z" fill="#4070DB"/>
            <path fill-rule="evenodd" clip-rule="evenodd" d="M81.418 62.0254C81.418 60.5421 80.366 59.5969 79.0848 59.4394C77.8845 59.2819 76.5763 60.5421 76.4819 61.7629C76.401 62.9312 77.7901 64.3226 78.9364 64.2176C80.1367 64.2176 81.418 63.1281 81.418 62.0254Z" fill="#4070DB"/>
            <path fill-rule="evenodd" clip-rule="evenodd" d="M182.054 132.963C182.756 133.002 183.376 132.779 183.875 132.254C184.954 131.151 184.927 130.009 183.767 128.946C182.594 127.883 181.394 127.975 180.315 128.959C179.519 129.681 179.411 131.151 180.058 132.031C180.544 132.7 181.205 132.989 182.054 132.963Z" fill="#4070DB"/>
            <path fill-rule="evenodd" clip-rule="evenodd" d="M72.8678 49.6466C72.7734 49.4497 72.7465 49.2134 72.652 49.0165C72.3149 48.242 71.0472 47.5857 70.1705 47.7695C69.1995 47.9795 68.5252 48.5833 68.2285 49.4759C67.7295 51.0118 68.9163 52.5082 70.6695 52.5345C70.8179 52.5214 71.0472 52.5214 71.2629 52.4557C72.4363 52.1144 73.3399 50.5917 72.8678 49.6466Z" fill="#4070DB"/>
            <path fill-rule="evenodd" clip-rule="evenodd" d="M57.965 17.0135C58.0055 15.8583 56.9535 14.585 55.8207 14.5325C54.3372 14.4538 53.1503 15.4908 53.0694 16.9216C53.002 18.1162 54.2967 19.2451 55.6184 19.3107C56.5759 19.3763 58.0729 18.103 57.965 17.0135Z" fill="#4070DB"/>
            <path fill-rule="evenodd" clip-rule="evenodd" d="M122.66 112.564C124.009 112.564 125.114 111.54 125.114 110.148C125.114 108.928 123.779 107.825 122.498 107.864C121.406 107.904 120.273 109.138 120.3 110.293C120.313 111.435 121.419 112.577 122.66 112.564Z" fill="#4070DB"/>
            <path fill-rule="evenodd" clip-rule="evenodd" d="M153.746 126.229C154.151 125.165 153.652 123.918 152.627 123.38C151.602 122.842 150.267 123.131 149.579 124.05C149.444 124.22 149.35 124.444 149.309 124.654C149.242 124.942 149.228 125.231 149.215 125.389C149.228 125.599 149.228 125.677 149.228 125.743C149.174 127.253 151.103 128.342 152.533 127.489C153.058 127.187 153.517 126.806 153.746 126.229Z" fill="#4070DB"/>
            <path fill-rule="evenodd" clip-rule="evenodd" d="M174.232 128.696C174.165 127.489 173.288 126.636 172.047 126.583C171.966 126.583 171.899 126.583 171.818 126.583C169.768 126.57 168.972 128.605 169.782 130.075C170.388 131.164 171.778 131.768 173.099 130.954C173.962 130.416 174.3 129.668 174.232 128.696Z" fill="#4070DB"/>
            <path fill-rule="evenodd" clip-rule="evenodd" d="M98.02 85.7587C98.2358 84.8135 98.02 83.9734 97.1973 83.3958C96.8332 83.1464 96.4016 82.9758 95.97 82.8314C95.7677 82.7657 95.498 82.7526 95.3092 82.8314C94.8911 82.9889 94.473 83.1858 94.0954 83.4221C93.7717 83.6321 93.5829 83.9734 93.5155 84.3409C93.4615 84.6297 93.4481 84.9317 93.4346 85.0498C93.4481 86.5856 94.5674 87.6227 95.9161 87.5177C96.8871 87.4389 97.8042 86.6907 98.02 85.7587Z" fill="#4070DB"/>
            <path fill-rule="evenodd" clip-rule="evenodd" d="M49.5495 5.19916C49.509 4.09651 48.2817 2.91509 47.1624 2.90197C46.0565 2.88884 44.8157 4.05714 44.7617 5.17292C44.7078 6.30183 46.1239 7.7064 47.2568 7.54888C48.6863 7.3651 49.4146 6.43309 49.5495 5.19916Z" fill="#4070DB"/>
            <path fill-rule="evenodd" clip-rule="evenodd" d="M163.794 125.979C163.713 125.848 163.632 125.717 163.524 125.625C163.012 125.152 162.418 124.85 161.582 124.837C160.449 124.798 159.451 125.651 159.384 126.833C159.343 127.436 159.37 128.014 159.775 128.526C160.22 129.09 160.813 129.392 161.501 129.537C161.717 129.576 161.973 129.563 162.162 129.471C162.58 129.287 162.998 129.103 163.349 128.828C164.104 128.224 164.293 126.833 163.794 125.979Z" fill="#4070DB"/>
            <path fill-rule="evenodd" clip-rule="evenodd" d="M143.254 124.955C143.483 124.654 143.631 124.312 143.672 123.932C143.753 123.013 143.348 122.33 142.593 121.844C141.851 121.372 141.069 121.188 140.219 121.674C139.572 122.041 139.154 122.514 139.113 123.262C139.1 123.406 139.1 123.564 139.086 123.708C139.113 124.955 139.451 125.507 140.853 125.979C141.055 126.045 141.325 126.058 141.527 126.006C142.215 125.822 142.822 125.52 143.254 124.955Z" fill="#4070DB"/>
            <path fill-rule="evenodd" clip-rule="evenodd" d="M64.4519 38.4102C64.4384 37.255 63.1842 36.0342 62.0648 36.1655C60.7566 36.3361 59.8126 37.2419 59.7856 38.5283C59.7586 40.051 61.0129 40.7861 62.0513 40.8386C63.4 40.9174 64.4654 39.8147 64.4519 38.4102Z" fill="#4070DB"/>
            <path fill-rule="evenodd" clip-rule="evenodd" d="M56.1041 26.8192C56.1041 25.6378 54.8903 24.417 53.7844 24.5483C52.4762 24.7058 51.5187 25.6116 51.5187 26.898C51.5052 28.3157 52.5571 29.0377 53.8114 29.169C54.715 29.2477 56.2255 28.0007 56.1041 26.8192Z" fill="#4070DB"/>
            <path fill-rule="evenodd" clip-rule="evenodd" d="M102.78 98.6492C103.495 99.2399 104.277 99.3317 105.127 98.9117C106.058 98.4522 106.422 97.704 106.435 96.5095C106.449 96.0894 106.166 95.5775 105.68 95.1705C105.208 94.7767 104.642 94.4354 104.021 94.5273C102.673 94.7373 101.728 95.6956 101.823 96.9558C101.85 97.6909 102.241 98.2029 102.78 98.6492Z" fill="#4070DB"/>
            <path fill-rule="evenodd" clip-rule="evenodd" d="M79.2063 72.7105C79.3142 72.5136 79.4086 72.3036 79.4625 72.0935C79.5164 71.8835 79.5434 71.6341 79.4895 71.4372C79.0984 70.0589 78.4375 69.6126 77.2642 69.6126C76.2257 69.5601 75.5379 70.072 75.0929 70.9515C74.7018 71.7391 74.8097 72.6055 75.43 73.2093C76.5764 74.2989 78.2352 74.4826 79.2063 72.7105Z" fill="#4070DB"/>
            <path fill-rule="evenodd" clip-rule="evenodd" d="M180.422 138.358C179.95 138.305 179.492 138.371 179.128 138.673C178.791 138.962 178.453 139.277 178.197 139.631C178.035 139.854 177.941 140.169 177.927 140.458C177.847 141.718 178.845 142.716 180.139 142.769C181.501 142.834 182.526 141.81 182.459 140.603C182.459 140.078 182.405 139.566 182 139.159C181.582 138.712 181.056 138.437 180.422 138.358Z" fill="#4070DB"/>
            <path fill-rule="evenodd" clip-rule="evenodd" d="M67.9992 62.2353C68.2015 62.3272 68.4442 62.3666 68.66 62.3534C69.7659 62.3141 71.0606 61.579 70.9392 60.1219C70.9257 59.9775 70.9392 59.8199 70.9123 59.6756C70.8178 58.8092 69.9952 58.0216 69.0916 57.9691C68.714 57.9428 68.3228 57.9559 67.9587 58.0347C67.6755 58.1003 67.3923 58.2579 67.1765 58.4416C66.7179 58.8486 66.4617 59.3999 66.4078 60.0037C66.3808 60.2794 66.4482 60.5944 66.5696 60.857C66.8528 61.5002 67.3518 61.9596 67.9992 62.2353Z" fill="#4070DB"/>
            <path fill-rule="evenodd" clip-rule="evenodd" d="M191.495 140.353C190.16 139.644 188.191 140.721 188.096 142.217C188.042 143.07 188.636 143.989 189.458 144.344C190.348 144.724 191.346 144.567 191.994 143.963C192.466 143.517 192.655 142.978 192.628 142.414C192.641 141.43 192.264 140.773 191.495 140.353Z" fill="#4070DB"/>
            <path fill-rule="evenodd" clip-rule="evenodd" d="M85.6257 85.68C86.6372 85.7062 87.7161 84.6036 87.824 83.4484C87.9319 82.2932 86.799 81.2562 85.4638 81.2825C84.1961 81.3087 83.3465 82.162 83.3465 83.4222C83.2251 84.9055 84.4928 85.6406 85.6257 85.68Z" fill="#4070DB"/>
            <path fill-rule="evenodd" clip-rule="evenodd" d="M200.544 141.889C199.439 141.955 198.414 142.926 198.319 144.042C198.225 145.145 199.425 146.313 200.639 146.313C201.853 146.313 203.08 145.158 202.959 144.055C202.864 142.965 201.934 141.81 200.544 141.889Z" fill="#4070DB"/>
            <path fill-rule="evenodd" clip-rule="evenodd" d="M169.943 136.586C168.891 136.625 167.718 137.82 167.785 138.817C167.88 140.051 168.703 141.062 170.159 140.983C171.427 140.905 172.317 140.038 172.276 138.831C172.25 137.557 171.184 136.533 169.943 136.586Z" fill="#4070DB"/>
            <path fill-rule="evenodd" clip-rule="evenodd" d="M114.001 110.214C114.177 110.083 114.352 109.912 114.446 109.715C114.824 108.941 114.865 108.127 114.406 107.378C113.988 106.696 113.327 106.355 112.545 106.407C111.358 106.407 110.819 106.748 110.387 107.785C110.279 108.048 110.198 108.363 110.239 108.639C110.495 110.266 112.383 111.487 114.001 110.214Z" fill="#4070DB"/>
            <path fill-rule="evenodd" clip-rule="evenodd" d="M95.633 96.4309C95.7814 96.2603 95.9162 96.0765 96.0106 95.8664C96.105 95.6695 96.159 95.4333 96.159 95.2232C96.1859 93.8974 95.2149 92.9523 93.8393 92.9786C92.9222 92.9654 92.2209 93.3986 91.8703 94.2256C91.5196 95.0395 91.641 95.8271 92.3018 96.5097C93.4077 97.6386 94.5541 97.6255 95.633 96.4309Z" fill="#4070DB"/>
            <path fill-rule="evenodd" clip-rule="evenodd" d="M62.5773 48.4653C62.6042 47.2313 61.7411 46.365 60.4868 46.2862C59.1382 46.2206 58.2481 46.9688 58.0862 48.4128C57.9784 49.3973 59.1112 50.5787 60.1901 50.6968C61.2691 50.8018 62.6717 49.5023 62.5773 48.4653Z" fill="#4070DB"/>
            <path fill-rule="evenodd" clip-rule="evenodd" d="M159.883 134.919C158.817 134.919 157.59 135.943 157.657 137.045C157.725 138.305 158.588 139.172 159.802 139.185C161.137 139.211 162.041 138.437 162.121 137.255C162.229 135.851 160.908 134.919 159.883 134.919Z" fill="#4070DB"/>
            <path fill-rule="evenodd" clip-rule="evenodd" d="M54.2158 36.8873C54.2023 35.8109 53.4336 34.5245 51.8961 34.6689C50.6688 34.6951 49.8057 35.5877 49.7787 36.861C49.7518 37.8849 51.0465 39.0401 52.0849 38.9351C53.1638 38.8169 54.2293 37.8062 54.2158 36.8873Z" fill="#4070DB"/>
            <path fill-rule="evenodd" clip-rule="evenodd" d="M132.896 120.768C132.316 119.954 131.237 119.613 130.253 119.993C129.551 120.256 128.931 120.925 128.958 121.923C128.971 122.448 128.958 122.999 129.376 123.393C130.28 124.273 131.143 124.43 132.06 123.945C133.368 123.262 133.759 121.989 132.896 120.768Z" fill="#4070DB"/>
            <path fill-rule="evenodd" clip-rule="evenodd" d="M151.305 133.947C151.062 133.645 150.752 133.435 150.361 133.396C150.064 133.356 149.754 133.343 149.458 133.356C148.608 133.37 148.041 133.829 147.677 134.538C147.313 135.247 147.502 136.192 148.082 136.796C148.527 137.268 149.08 137.426 149.687 137.413C150.752 137.413 151.224 137.111 151.696 136.205C151.993 135.627 152.006 135.076 151.669 134.512C151.548 134.315 151.44 134.118 151.305 133.947Z" fill="#4070DB"/>
            <path fill-rule="evenodd" clip-rule="evenodd" d="M104.494 106.67C104.507 105.606 103.671 104.727 102.538 104.674C101.5 104.622 100.421 105.396 100.151 106.407C100.097 106.617 100.111 106.853 100.178 107.063C100.259 107.352 100.367 107.641 100.542 107.877C101.216 108.809 102.241 109.19 103.334 108.547C104.035 108.153 104.507 107.602 104.494 106.67Z" fill="#4070DB"/>
            <path fill-rule="evenodd" clip-rule="evenodd" d="M69.0239 70.7808C69.0779 70.4133 69.1049 70.0326 69.0779 69.665C69.0374 68.8643 68.3361 68.0636 67.5674 67.8929C66.5154 67.6566 65.45 68.0898 65.0589 68.9693C64.9106 69.2975 64.8836 69.6782 64.8971 69.6257C64.7757 70.9777 65.1938 71.6209 66.0704 71.9885C66.1378 72.0148 66.2053 72.0541 66.2727 72.0804C66.7177 72.2904 67.1628 72.3035 67.5944 72.0935C67.8641 71.9622 68.1473 71.831 68.4036 71.6734C68.7407 71.4765 68.97 71.1746 69.0239 70.7808Z" fill="#4070DB"/>
            <path fill-rule="evenodd" clip-rule="evenodd" d="M85.8685 92.939C85.6527 92.3746 85.3291 91.8757 84.8166 91.5213C84.4929 91.2981 84.1422 91.18 83.7511 91.1931C82.5508 91.2456 81.6068 92.1645 81.5393 93.3328C81.5259 93.7135 81.6203 94.0548 81.8495 94.383C82.2137 94.8949 82.7262 95.1968 83.3061 95.42C83.6837 95.5644 84.0344 95.5381 84.412 95.3806C85.0863 95.1181 85.5583 94.6718 85.8281 94.0154C85.9494 93.6479 86.0034 93.3066 85.8685 92.939Z" fill="#4070DB"/>
            <path fill-rule="evenodd" clip-rule="evenodd" d="M59.4891 60.1876C59.8667 59.9513 60.2039 59.6231 60.4871 59.2818C60.6624 59.0587 60.7029 58.7436 60.7568 58.6124C60.7568 57.1815 59.7184 56.1708 58.4237 56.197C58.1405 56.2102 57.7898 56.2889 57.574 56.4596C57.2234 56.7221 56.8997 57.0634 56.6569 57.431C56.1579 58.2054 56.2523 58.9537 56.8592 59.6888C57.5201 60.5026 58.599 60.7389 59.4891 60.1876Z" fill="#4070DB"/>
            <path fill-rule="evenodd" clip-rule="evenodd" d="M46.2723 17.171C47.0275 16.7903 47.4186 16.239 47.4321 15.4251C47.4321 14.9 47.4186 14.4012 47.0815 13.9418C46.542 13.2067 45.6249 12.9047 44.6539 13.1673C43.8177 13.3904 43.2109 14.2568 43.2243 15.0838C43.2243 16.1208 43.7233 16.7247 44.5325 17.1053C45.099 17.3679 45.6519 17.4729 46.2723 17.171Z" fill="#4070DB"/>
            <path fill-rule="evenodd" clip-rule="evenodd" d="M76.1313 79.8385C76.0639 79.8122 75.9964 79.7728 75.929 79.7466C75.0928 79.4184 73.7712 79.9435 73.4205 80.7574C72.7732 82.2801 73.9735 83.5665 75.1603 83.8028C75.2277 83.8159 75.3086 83.829 75.3895 83.8159C76.6573 83.5665 77.3855 82.9364 77.3586 81.7156C77.426 80.8492 76.9944 80.206 76.1313 79.8385Z" fill="#4070DB"/>
            <path fill-rule="evenodd" clip-rule="evenodd" d="M49.8324 48.7933C50.0482 48.8459 50.2909 48.8459 50.4932 48.7802C50.7899 48.7015 51.0732 48.5702 51.3294 48.4127C51.9498 48.0189 52.1925 47.3888 52.3274 46.7981C52.2735 45.8398 51.4103 44.7897 50.5472 44.5796C50.1696 44.4877 49.7785 44.5009 49.4278 44.6846C48.8074 45.0128 48.3084 45.4723 48.0117 46.1155C47.9173 46.3124 47.8903 46.5618 47.9308 46.7718C48.1736 47.7826 48.74 48.5308 49.8324 48.7933Z" fill="#4070DB"/>
            <path fill-rule="evenodd" clip-rule="evenodd" d="M188.474 150.093C188.326 150.093 188.177 150.133 188.029 150.185C187.813 150.264 187.611 150.369 187.408 150.474C186.909 150.75 186.613 151.17 186.599 151.734C186.586 152.102 186.586 152.482 186.64 152.85C186.667 153.06 186.761 153.309 186.896 153.454C187.705 154.307 188.69 154.661 189.755 154.031C190.416 153.651 190.78 153.165 190.78 152.482C190.794 151.248 189.715 150.133 188.474 150.093Z" fill="#4070DB"/>
            <path fill-rule="evenodd" clip-rule="evenodd" d="M140.812 132.097C139.814 131.217 138.331 131.466 137.711 132.622C137.576 132.884 137.468 133.173 137.4 133.462C137.306 133.921 137.414 134.341 137.711 134.722C138.142 135.299 138.722 135.615 139.477 135.588C139.626 135.575 139.788 135.575 139.936 135.562C140.786 135.483 141.352 134.958 141.433 134.144C141.46 133.856 141.46 133.554 141.446 133.252C141.406 132.779 141.163 132.412 140.812 132.097Z" fill="#4070DB"/>
            <path fill-rule="evenodd" clip-rule="evenodd" d="M200.504 152.614C199.762 151.852 198.94 151.721 198.036 152.194C197.901 152.259 197.766 152.338 197.645 152.417C196.337 153.322 196.485 155.134 197.915 155.908C198.494 156.224 199.047 156.237 199.654 155.961C200.504 155.58 201.003 155.003 200.949 154.058C200.909 153.769 200.909 153.467 200.828 153.178C200.774 152.981 200.652 152.758 200.504 152.614Z" fill="#4070DB"/>
            <path fill-rule="evenodd" clip-rule="evenodd" d="M111.345 116.449C110.144 115.99 108.782 116.791 108.674 118.024C108.647 118.392 108.661 118.76 108.701 119.127C108.769 119.718 109.281 120.23 109.874 120.322C110.104 120.361 110.32 120.374 110.36 120.374C110.697 120.374 110.859 120.387 111.007 120.374C112.316 120.282 113.165 119.022 112.72 117.828C112.477 117.171 112.032 116.712 111.345 116.449Z" fill="#4070DB"/>
            <path fill-rule="evenodd" clip-rule="evenodd" d="M45.4496 25.9265C45.5575 25.6508 45.544 25.3489 45.571 25.2176C45.544 24.0887 44.8966 23.2617 44.0335 23.0911C43.0625 22.8942 42.024 23.4587 41.6329 24.3907C41.2823 25.2045 41.525 25.979 42.1859 26.6091C42.7793 27.1736 44.5055 27.1735 44.9641 26.6747C45.1664 26.4384 45.3552 26.189 45.4496 25.9265Z" fill="#4070DB"/>
            <path fill-rule="evenodd" clip-rule="evenodd" d="M120.987 118.103C119.706 118.064 118.83 118.904 118.83 120.164C118.83 121.319 119.652 122.133 120.826 122.146C122.134 122.172 122.997 121.359 122.997 120.098C122.983 118.983 122.147 118.129 120.987 118.103Z" fill="#4070DB"/>
            <path fill-rule="evenodd" clip-rule="evenodd" d="M93.0432 103.139C92.5038 102.745 91.6541 102.758 91.1146 103.204C90.8314 103.441 90.5482 103.716 90.3459 104.018C89.8739 104.701 89.8604 105.396 90.3459 106.105C90.6561 106.578 91.0742 106.867 91.6541 106.906C91.8025 106.919 91.9643 106.919 92.3149 106.932C93.0702 106.998 93.7175 106.591 94.1087 105.738C94.4593 104.963 94.4458 104.464 93.8929 103.887C93.6231 103.624 93.3399 103.362 93.0432 103.139Z" fill="#4070DB"/>
            <path fill-rule="evenodd" clip-rule="evenodd" d="M37.034 1.40565C35.8607 1.39253 34.8357 2.33767 34.8762 3.49284C34.9166 4.62174 35.6988 5.43559 36.8317 5.52748C38.2073 5.6325 39.1649 4.49047 39.0974 3.57159C39.2323 2.36392 38.1399 1.41878 37.034 1.40565Z" fill="#4070DB"/>
            <path fill-rule="evenodd" clip-rule="evenodd" d="M178.885 148.584C178.44 148.544 177.981 148.597 177.536 148.649C177.051 148.715 176.579 149.214 176.498 149.7C176.457 149.923 176.444 150.133 176.417 150.277C176.417 150.422 176.417 150.5 176.417 150.579C176.39 151.393 176.781 151.997 177.482 152.404C178.224 152.824 178.925 152.64 179.613 152.233C180.099 151.944 180.341 151.498 180.517 151.012C180.881 149.91 180.058 148.676 178.885 148.584Z" fill="#4070DB"/>
            <path fill-rule="evenodd" clip-rule="evenodd" d="M37.2497 13.3116C37.2362 12.3009 36.2786 11.382 35.1862 11.3557C34.0399 11.3295 33.0688 12.3402 33.0688 13.4691C33.0688 14.3618 33.959 15.4251 35.1323 15.3857C36.4135 15.3594 37.2766 14.5587 37.2497 13.3116Z" fill="#4070DB"/>
            <path fill-rule="evenodd" clip-rule="evenodd" d="M129.349 129.773C128.068 129.865 127.083 130.915 127.178 132.136C127.245 133.042 128.189 133.829 129.214 133.829C130.482 133.842 131.345 133.002 131.331 131.755C131.412 130.666 130.307 129.694 129.349 129.773Z" fill="#4070DB"/>
            <path fill-rule="evenodd" clip-rule="evenodd" d="M119.045 128.04C117.926 128.119 117.022 129.025 117.022 130.311C117.022 131.007 117.913 132.11 119.045 132.031C120.327 132.044 121.163 131.204 121.136 129.944C121.122 128.933 120.097 127.975 119.045 128.04Z" fill="#4070DB"/>
            <path fill-rule="evenodd" clip-rule="evenodd" d="M168.379 146.772C167.085 146.772 166.235 147.625 166.275 148.899C166.208 149.962 167.327 150.842 168.11 150.828C169.323 150.815 170.456 149.844 170.416 148.781C170.375 147.691 169.458 146.785 168.379 146.772Z" fill="#4070DB"/>
            <path fill-rule="evenodd" clip-rule="evenodd" d="M40.244 36.2966C40.4193 36.5198 40.689 36.7429 40.9588 36.8086C42.6446 37.268 43.8314 36.1522 43.7505 34.8264C43.7774 33.9994 43.3189 33.4481 42.6176 33.0543C42.1186 32.7786 41.5926 32.7918 41.0936 33.0412C40.5407 33.3168 40.1226 33.75 39.8124 34.262C39.6101 34.5901 39.5562 34.9708 39.718 35.3253C39.8529 35.6665 40.0147 36.0078 40.244 36.2966Z" fill="#4070DB"/>
            <path fill-rule="evenodd" clip-rule="evenodd" d="M58.7742 67.6961C58.3696 66.8035 57.6009 66.3703 56.6568 66.1996C56.522 66.1734 56.3467 66.2128 56.2253 66.2784C55.8881 66.4491 55.5375 66.6197 55.2408 66.8297C55.0654 66.961 54.9306 67.171 54.8631 67.3811C54.3776 69.0219 55.5375 70.2033 56.8861 70.1114C57.7493 70.1246 58.3157 69.6783 58.7068 68.9825C58.9496 68.5756 58.963 68.1161 58.7742 67.6961Z" fill="#4070DB"/>
            <path fill-rule="evenodd" clip-rule="evenodd" d="M33.4063 25.2177C33.8378 25.2177 34.202 25.1258 34.5257 24.9027C35.672 24.0757 35.6855 22.5267 34.5257 21.6997C33.703 21.109 32.9882 21.1221 32.2734 21.7522C32.0441 21.9491 31.8418 22.1723 31.653 22.3954C31.154 22.9993 31.181 23.8262 31.68 24.4432C32.1385 24.9945 32.705 25.2833 33.4063 25.2177Z" fill="#4070DB"/>
            <path fill-rule="evenodd" clip-rule="evenodd" d="M101.608 115.084C100.704 114.48 99.9757 114.533 99.1126 115.228C98.9372 115.36 98.7754 115.557 98.708 115.753C98.1146 117.342 99.2474 118.628 100.61 118.576C101.432 118.641 102.039 118.221 102.457 117.539C102.794 116.987 102.781 116.384 102.403 115.858C102.187 115.557 101.918 115.281 101.608 115.084Z" fill="#4070DB"/>
            <path fill-rule="evenodd" clip-rule="evenodd" d="M25.8404 3.42703C26.5012 3.82083 27.1621 3.68956 27.7959 3.33513C27.8634 3.29575 27.9308 3.25637 27.9982 3.21699C29.0097 2.5344 29.1446 1.40549 28.2949 0.552246C28.0387 0.289709 27.742 0.0271669 27.4048 -0.130355C27.1486 -0.248497 26.8114 -0.274753 26.5282 -0.235372C26.2315 -0.182865 25.9618 -0.0122105 25.692 0.119058C25.0986 0.420975 24.8019 0.919802 24.8154 1.6024C24.7345 2.41626 25.1391 3.0201 25.8404 3.42703Z" fill="#4070DB"/>
            <path fill-rule="evenodd" clip-rule="evenodd" d="M82.6049 101.498C80.6493 101.235 79.8671 101.983 80.1233 103.887C80.2043 104.477 80.7167 104.989 81.3236 105.068C81.5529 105.094 81.7822 105.107 81.9036 105.107C83.2792 105.094 83.8321 104.569 83.8456 103.348C83.8456 103.125 83.8321 102.902 83.8052 102.679C83.7242 102.088 83.1983 101.576 82.6049 101.498Z" fill="#4070DB"/>
            <path fill-rule="evenodd" clip-rule="evenodd" d="M148.77 143.491C148.217 143.149 147.61 143.149 147.057 143.464C146.275 143.924 145.924 144.606 146.018 145.499C146.099 146.326 146.585 146.864 147.327 147.14C148.014 147.389 148.662 147.205 149.188 146.693C149.592 146.313 149.795 145.867 149.768 145.197C149.862 144.488 149.458 143.911 148.77 143.491Z" fill="#4070DB"/>
            <path fill-rule="evenodd" clip-rule="evenodd" d="M158.736 145.171C158.048 144.869 157.414 145.013 156.835 145.486C156.255 145.958 156.106 146.575 156.16 147.284C156.228 148.124 156.713 148.662 157.468 148.951C158.156 149.214 158.804 149.017 159.357 148.518C159.761 148.137 159.963 147.678 159.95 147.14C159.95 146.995 159.963 146.838 159.95 146.693C159.829 145.945 159.383 145.446 158.736 145.171Z" fill="#4070DB"/>
            <path fill-rule="evenodd" clip-rule="evenodd" d="M64.9512 78.1189C64.0881 78.1583 63.5621 78.6308 63.2115 79.3397C62.9013 79.9698 63.1575 80.7574 63.7779 81.3218C64.196 81.7025 64.695 81.8075 65.2749 81.7813C65.3828 81.7682 65.5446 81.7682 65.693 81.7419C66.4213 81.5713 66.9068 81.1249 67.1226 80.4686C67.3249 79.8779 67.19 79.3134 66.7584 78.8146C66.2864 78.2633 65.666 78.0795 64.9512 78.1189Z" fill="#4070DB"/>
            <path fill-rule="evenodd" clip-rule="evenodd" d="M108.957 126.596C108.067 126.596 107.433 126.977 107.056 127.712C106.8 128.211 106.813 128.736 107.123 129.209C107.717 130.101 108.458 130.416 109.713 130.075C109.915 130.023 110.131 129.865 110.252 129.694C110.468 129.392 110.657 129.064 110.805 128.723C111.007 128.277 110.926 127.857 110.63 127.463C110.212 126.885 109.659 126.544 108.957 126.596Z" fill="#4070DB"/>
            <path fill-rule="evenodd" clip-rule="evenodd" d="M74.6882 90.1298C74.297 89.8411 73.8655 89.7886 73.3934 89.7886C72.3954 89.8017 71.5053 90.6549 71.4918 91.6132C71.4784 92.5452 72.3954 93.4378 73.2586 93.4509C73.4609 93.4509 73.5283 93.4509 73.6092 93.4509C74.4724 93.4116 75.2546 92.834 75.4569 92.0726C75.6592 91.3507 75.3625 90.6418 74.6882 90.1298Z" fill="#4070DB"/>
            <path fill-rule="evenodd" clip-rule="evenodd" d="M139.424 142.572C139.019 141.731 137.751 141.39 136.875 141.836C136.457 142.047 136.052 142.322 135.971 142.782C135.89 143.215 135.85 143.687 135.971 144.107C136.268 145.158 137.697 146.011 138.898 145.013C139.397 144.606 139.653 144.094 139.586 143.162C139.586 143.136 139.545 142.834 139.424 142.572Z" fill="#4070DB"/>
            <path fill-rule="evenodd" clip-rule="evenodd" d="M50.1969 56.5514C50.1834 55.3438 49.644 54.7924 48.4167 54.7793C48.12 54.7793 47.8098 54.8055 47.5131 54.8581C47.0276 54.9368 46.5421 55.4225 46.4881 55.9082C46.4477 56.2626 46.4207 56.6564 46.5016 56.9977C46.6635 57.6935 47.149 58.1923 47.8503 58.3498C49.3068 58.6648 50.2644 58.1135 50.1969 56.5514Z" fill="#4070DB"/>
            <path fill-rule="evenodd" clip-rule="evenodd" d="M63.0223 88.0298C62.1861 88.1085 61.269 89.0668 61.4039 89.8544C61.5792 90.8914 62.1592 91.679 63.4134 91.6002C64.1956 91.6396 64.7621 91.1933 65.1532 90.5107C65.4229 90.025 65.4094 89.5131 65.1127 89.0405C64.6407 88.2792 63.9394 87.9379 63.0223 88.0298Z" fill="#4070DB"/>
            <path fill-rule="evenodd" clip-rule="evenodd" d="M175.446 159.02C174.664 159.715 174.313 160.687 175.217 161.54C175.487 161.803 175.783 162.026 176.094 162.249C176.201 162.328 176.39 162.367 176.525 162.354C177.388 162.209 178.09 161.789 178.535 161.028C178.602 160.897 178.629 160.752 178.669 160.608C178.71 160.267 178.548 159.755 178.251 159.361C177.577 158.442 176.309 158.258 175.446 159.02Z" fill="#4070DB"/>
            <path fill-rule="evenodd" clip-rule="evenodd" d="M197.025 162.052C195.797 162.026 195.217 162.853 195.082 163.824C194.948 164.73 195.959 165.662 196.998 165.675C197.793 165.741 198.4 165.334 198.818 164.651C199.101 164.178 199.128 163.653 198.859 163.168C198.468 162.459 197.888 162.078 197.025 162.052Z" fill="#4070DB"/>
            <path fill-rule="evenodd" clip-rule="evenodd" d="M55.8072 76.4911C54.5934 76.1367 53.6899 76.4517 53.1099 77.5413C53.0155 77.725 53.002 77.9876 53.0425 78.1845C53.1099 78.4733 53.2448 78.7358 53.3797 79.0115C53.7168 79.6941 54.2833 79.996 54.9846 79.9435C55.8072 79.9304 56.1983 79.7203 56.5625 79.1165C57.1019 78.2239 56.994 77.4888 56.1849 76.7143C56.077 76.6355 55.9421 76.5305 55.8072 76.4911Z" fill="#4070DB"/>
            <path fill-rule="evenodd" clip-rule="evenodd" d="M188.097 160.713C187.867 160.542 187.584 160.372 187.301 160.332C186.492 160.201 185.804 160.516 185.305 161.12C184.577 161.999 184.725 162.958 185.709 163.575C186.006 163.771 186.397 163.85 186.519 163.863C187.625 163.955 188.231 163.575 188.663 162.905C189.041 162.314 188.811 161.776 188.501 161.251C188.38 161.054 188.258 160.844 188.097 160.713Z" fill="#4070DB"/>
            <path fill-rule="evenodd" clip-rule="evenodd" d="M91.0202 113.207C90.6426 113.168 90.2515 113.141 89.8873 113.207C88.9028 113.378 88.2015 114.533 88.5117 115.425C88.9837 116.791 90.5212 117.066 91.4922 116.476C91.735 116.331 91.8968 116.042 92.0317 115.78C92.1261 115.583 92.1126 115.347 92.1531 115.097C92.1261 114.835 92.1126 114.533 92.0722 114.244C92.0047 113.758 91.5327 113.273 91.0202 113.207Z" fill="#4070DB"/>
            <path fill-rule="evenodd" clip-rule="evenodd" d="M166.99 156.867C166.343 156.578 165.749 156.867 165.304 157.26C164.266 158.206 164.279 159.203 165.304 160.148C166.14 160.923 167.165 160.765 167.867 159.86C168.163 159.479 168.204 159.046 168.204 158.639C168.204 157.746 167.718 157.195 166.99 156.867Z" fill="#4070DB"/>
            <path fill-rule="evenodd" clip-rule="evenodd" d="M41.8756 44.619C41.8352 43.7658 41.3227 43.2013 40.5 43.1619C40.0549 43.1357 39.5964 43.1619 39.1513 43.2407C38.7602 43.3063 38.477 43.5689 38.3152 43.9233C38.0724 44.4877 38.032 45.0785 38.3017 45.6298C38.976 46.9818 40.446 47.0606 41.2822 46.2336C41.6733 45.8398 41.8891 45.4066 41.8621 44.724C41.8756 44.7634 41.8756 44.6978 41.8756 44.619Z" fill="#4070DB"/>
            <path fill-rule="evenodd" clip-rule="evenodd" d="M33.5275 33.1199C33.46 32.4373 32.7857 31.676 32.1114 31.5447C31.8956 31.5053 31.6529 31.5053 31.5315 31.4922C30.8032 31.5053 30.3042 31.7547 30.0749 32.1748C29.6434 32.9886 29.8187 34.0125 30.5065 34.6164C31.046 35.0889 31.8282 35.2202 32.4081 34.9314C33.1499 34.5376 33.5949 33.8156 33.5275 33.1199Z" fill="#4070DB"/>
            <path fill-rule="evenodd" clip-rule="evenodd" d="M126.436 140.288C126.193 140.406 126.005 140.695 125.856 140.944C125.748 141.128 125.762 141.377 125.762 141.43C125.694 142.335 125.991 142.887 126.598 143.32C127.232 143.766 128.095 143.74 128.702 143.228C129.363 142.677 129.619 141.902 129.309 141.246C128.796 140.13 127.65 139.736 126.436 140.288Z" fill="#4070DB"/>
            <path fill-rule="evenodd" clip-rule="evenodd" d="M38.0994 53.0728C37.1958 53.1122 36.3866 53.913 36.3731 54.7925C36.3462 55.7638 37.2498 56.6302 38.2613 56.5908C39.1649 56.5646 39.974 55.7507 40.001 54.8712C40.001 53.8998 39.0974 53.0334 38.0994 53.0728Z" fill="#4070DB"/>
            <path fill-rule="evenodd" clip-rule="evenodd" d="M80.0156 111.408C79.112 111.461 78.3028 112.34 78.3298 113.22C78.3567 114.113 79.2199 114.913 80.1235 114.913C81.054 114.913 81.9037 114.113 81.9307 113.22C81.9576 112.249 81.0136 111.356 80.0156 111.408Z" fill="#4070DB"/>
            <path fill-rule="evenodd" clip-rule="evenodd" d="M25.4896 13.3902C26.7573 12.8389 26.9596 11.5 26.4067 10.568C26.2718 10.3317 25.9616 10.161 25.7054 10.0298C25.5166 9.93787 25.2603 9.95099 25.2064 9.93786C24.0196 9.8591 23.3048 10.5417 23.0755 11.2112C22.8732 11.8544 23.1969 12.3795 23.615 12.8389C23.9252 13.1802 24.3433 13.3902 24.8153 13.4559C25.0446 13.4952 25.2873 13.469 25.4896 13.3902Z" fill="#4070DB"/>
            <path fill-rule="evenodd" clip-rule="evenodd" d="M46.4203 64.7164C45.5167 64.7427 44.6806 65.5565 44.6671 66.436C44.6401 67.4074 45.5572 68.2869 46.5552 68.2475C47.4723 68.2082 48.2815 67.4205 48.3084 66.5279C48.3354 65.5434 47.4453 64.6902 46.4203 64.7164Z" fill="#4070DB"/>
            <path fill-rule="evenodd" clip-rule="evenodd" d="M71.8561 99.7257C70.8446 99.6994 69.9545 100.579 69.995 101.563C70.022 102.456 70.8446 103.244 71.7617 103.27C72.7597 103.296 73.6633 102.404 73.6229 101.432C73.5959 100.54 72.7597 99.7388 71.8561 99.7257Z" fill="#4070DB"/>
            <path fill-rule="evenodd" clip-rule="evenodd" d="M156.646 155.331C156.416 155.318 156.187 155.318 155.971 155.344C154.731 155.488 154.083 156.762 154.704 157.812C155.216 158.691 156.187 159.098 157.199 158.455C157.671 158.153 157.994 157.786 158.048 157.169C158.048 157.077 158.048 156.932 158.048 156.775C157.994 155.908 157.509 155.383 156.646 155.331Z" fill="#4070DB"/>
            <path fill-rule="evenodd" clip-rule="evenodd" d="M117.144 138.292C117.009 138.305 116.78 138.318 116.564 138.384C116.173 138.489 115.863 138.752 115.741 139.106C115.391 140.287 115.647 141.049 116.632 141.613C116.874 141.758 117.238 141.81 117.508 141.758C117.872 141.679 118.223 141.495 118.52 141.272C118.897 140.996 119.113 140.576 119.154 140.117C119.207 139.159 118.277 138.279 117.144 138.292Z" fill="#4070DB"/>
            <path fill-rule="evenodd" clip-rule="evenodd" d="M29.5623 41.4294C28.6587 41.5869 27.9709 42.4795 28.0653 43.3459C28.1732 44.3173 29.1847 45.0524 30.1827 44.8817C30.8705 44.7636 31.6527 43.7528 31.5718 43.0702C31.3156 42.1251 30.7491 41.2325 29.5623 41.4294Z" fill="#4070DB"/>
            <path fill-rule="evenodd" clip-rule="evenodd" d="M98.6135 124.85C97.7503 124.837 96.9142 125.664 96.8602 126.583C96.8063 127.41 97.7099 128.382 98.546 128.382C99.5845 128.395 100.448 127.542 100.407 126.544C100.38 125.651 99.5575 124.877 98.6135 124.85Z" fill="#4070DB"/>
            <path fill-rule="evenodd" clip-rule="evenodd" d="M146.113 153.546C145.209 153.519 144.332 154.254 144.252 155.147C144.198 155.698 144.373 156.184 144.858 156.499C145.236 156.735 145.627 156.985 146.234 156.985C146.463 156.88 146.828 156.749 147.151 156.565C147.731 156.224 147.947 155.685 147.839 155.042C147.704 154.241 146.935 153.572 146.113 153.546Z" fill="#4070DB"/>
            <path fill-rule="evenodd" clip-rule="evenodd" d="M16.494 -1.67913C15.8062 -1.69226 15.3612 -1.28533 14.9835 -0.799638C14.7408 -0.484594 14.6733 -0.117038 14.8082 0.250513C14.9161 0.526177 15.024 0.828082 15.2128 1.03811C15.8197 1.69445 16.521 1.93075 17.2358 1.49756C17.4246 1.37942 17.6404 1.28752 17.8157 1.14313C18.1259 0.893719 18.2877 0.565561 18.3147 0.171755C18.3821 -0.812758 17.519 -1.69226 16.494 -1.67913Z" fill="#4070DB"/>
            <path fill-rule="evenodd" clip-rule="evenodd" d="M135.755 151.774C134.757 151.879 133.975 152.85 134.137 153.821C134.258 154.517 135.256 155.252 135.998 155.173C136.794 155.095 137.67 154.136 137.67 153.309C137.67 152.692 136.794 151.669 135.755 151.774Z" fill="#4070DB"/>
            <path fill-rule="evenodd" clip-rule="evenodd" d="M88.8897 123.157C88.7548 123.118 88.5795 123.105 88.4446 123.144C87.6489 123.315 87.0555 123.735 86.8127 124.522C86.7588 124.719 86.7453 124.969 86.8127 125.165C86.9476 125.507 87.1094 125.861 87.3522 126.124C87.541 126.334 87.8377 126.491 88.1209 126.544C89.2268 126.767 90.2653 125.874 90.2248 124.785C90.1979 124.076 89.6045 123.341 88.8897 123.157Z" fill="#4070DB"/>
            <path fill-rule="evenodd" clip-rule="evenodd" d="M23.3855 19.8619C23.0888 19.8488 22.7516 19.8488 22.4953 19.9407C22.2391 20.0457 21.9559 20.2426 21.8075 20.4789C21.4434 21.0827 21.4299 21.7653 21.7671 22.3823C22.0638 22.9074 22.5223 23.3405 23.2101 23.3274C23.8845 23.3143 24.316 22.868 24.6262 22.3429C24.7746 22.0935 24.7881 21.7784 24.815 21.6997C24.815 21.424 24.815 21.3452 24.815 21.2665C24.7611 20.4001 24.2756 19.9013 23.3855 19.8619Z" fill="#4070DB"/>
            <path fill-rule="evenodd" clip-rule="evenodd" d="M38.0587 64.2306C37.8699 63.6661 36.845 63.0098 36.2381 63.0623C35.0513 63.2854 34.269 64.5062 34.849 65.3595C34.9703 65.5433 35.0647 65.7533 35.1996 65.9371C35.4424 66.2521 35.7795 66.4096 36.1841 66.449C37.29 66.5278 38.261 65.517 38.0992 64.4537C38.0857 64.375 38.0722 64.2962 38.0587 64.2306Z" fill="#4070DB"/>
            <path fill-rule="evenodd" clip-rule="evenodd" d="M126.976 150.619C126.638 150.107 125.964 149.883 125.357 150.041C124.71 150.212 124.063 150.894 124.022 151.432C124.022 151.511 124.009 151.577 124.022 151.656C124.157 152.509 124.804 153.191 125.627 153.349C125.694 153.362 125.775 153.349 125.87 153.349C125.924 153.323 126.005 153.31 126.072 153.283C126.625 152.994 127.07 152.588 127.353 152.049C127.448 151.879 127.434 151.603 127.38 151.419C127.286 151.144 127.137 150.868 126.976 150.619Z" fill="#4070DB"/>
            <path fill-rule="evenodd" clip-rule="evenodd" d="M175.365 168.852C175.001 168.812 174.61 168.825 174.246 168.878C173.679 168.97 173.302 169.521 173.275 170.19C173.234 171.017 173.571 171.661 174.151 171.818C174.664 171.949 175.217 172.002 175.702 171.753C175.945 171.621 176.188 171.385 176.323 171.149C176.458 170.899 176.458 170.584 176.498 170.427C176.471 170.151 176.458 170.007 176.444 169.862C176.336 169.363 175.878 168.904 175.365 168.852Z" fill="#4070DB"/>
            <path fill-rule="evenodd" clip-rule="evenodd" d="M68.5252 110.7C68.4847 110.765 68.4577 110.831 68.4173 110.897C68.2959 111.172 68.2285 111.461 68.3768 111.75C68.5117 112.012 68.633 112.288 68.7949 112.524C69.159 113.062 69.7524 113.194 70.3863 112.931C70.9797 112.695 71.3978 112.288 71.5866 111.684C71.6271 111.553 71.6271 111.395 71.654 111.225C71.5731 111.041 71.5057 110.831 71.3978 110.634C70.656 109.4 69.1995 109.492 68.5252 110.7Z" fill="#4070DB"/>
            <path fill-rule="evenodd" clip-rule="evenodd" d="M107.164 136.573C107.015 136.559 106.854 136.573 106.719 136.625C106.206 136.835 105.829 137.19 105.613 137.675C105.195 138.62 106.004 139.92 107.042 139.986C107.123 139.986 107.191 139.986 107.272 139.972C108.081 139.828 108.728 139.027 108.701 138.227C108.674 137.439 107.933 136.625 107.164 136.573Z" fill="#4070DB"/>
            <path fill-rule="evenodd" clip-rule="evenodd" d="M45.733 75.1259C45.6116 75.0471 45.4632 74.9946 45.3284 74.929C44.6406 74.6008 44.2764 74.6796 43.7235 75.2309C43.3324 75.6379 43.211 76.1104 43.238 76.5961C43.2515 77.2524 43.4537 77.5413 44.0472 77.8563C44.7619 78.2239 45.3149 78.1451 45.8813 77.5806C45.9892 77.4756 46.0836 77.3706 46.178 77.2393C46.677 76.5436 46.4612 75.5853 45.733 75.1259Z" fill="#4070DB"/>
            <path fill-rule="evenodd" clip-rule="evenodd" d="M15.3746 8.37585C15.2397 8.31022 15.0914 8.27082 14.943 8.25769C14.0799 8.20519 13.2977 8.90092 13.2842 9.29473C13.2842 9.79355 13.2842 9.87231 13.2842 9.95107C13.3651 11.3031 14.5115 11.9201 15.6713 11.2375C15.7387 11.1981 15.8062 11.1587 15.8601 11.1194C16.4265 10.7387 16.6288 9.9248 16.3186 9.32096C16.1163 8.90091 15.7927 8.58588 15.3746 8.37585Z" fill="#4070DB"/>
            <path fill-rule="evenodd" clip-rule="evenodd" d="M62.1593 98.2161C62.0379 98.1374 61.876 98.0586 61.7412 98.0718C61.0399 98.1505 60.4195 98.3868 60.0554 99.0037C59.7721 99.4763 59.7991 100.001 60.0823 100.474C60.406 100.986 60.8511 101.472 61.5119 101.393C62.5639 101.275 63.1033 100.75 63.0629 99.8701C63.0629 99.1219 62.8201 98.6624 62.1593 98.2161Z" fill="#4070DB"/>
            <path fill-rule="evenodd" clip-rule="evenodd" d="M21.6861 29.8383C21.4838 29.7727 21.2275 29.7727 21.0252 29.8383C20.297 30.0877 19.771 30.8097 19.771 31.5054C19.771 32.188 20.3105 32.9231 21.0387 33.1594C21.241 33.225 21.4973 33.225 21.6996 33.1594C22.4413 32.91 22.9538 32.2011 22.9538 31.4923C22.9403 30.7966 22.4144 30.0877 21.6861 29.8383Z" fill="#4070DB"/>
            <path fill-rule="evenodd" clip-rule="evenodd" d="M196.633 173.17C196.485 172.934 196.283 172.672 196.026 172.553C195.46 172.291 194.853 172.291 194.273 172.567C193.909 172.737 193.68 173.026 193.612 173.407C193.424 174.391 194.138 175.363 195.163 175.481C195.999 175.573 196.66 175.074 196.741 174.26C196.755 174.116 196.741 173.971 196.741 173.669C196.728 173.59 196.741 173.341 196.633 173.17Z" fill="#4070DB"/>
            <path fill-rule="evenodd" clip-rule="evenodd" d="M185.736 170.689C185.534 170.61 185.291 170.61 185.13 170.584C184.914 170.597 184.765 170.597 184.617 170.61C183.889 170.702 183.444 171.254 183.417 171.989C183.376 172.79 184.361 173.735 185.17 173.708C185.925 173.682 186.519 173.249 186.586 172.54C186.613 172.173 186.6 171.792 186.519 171.451C186.411 171.083 186.114 170.82 185.736 170.689Z" fill="#4070DB"/>
            <path fill-rule="evenodd" clip-rule="evenodd" d="M53.663 86.4676C53.5416 86.402 53.3528 86.3626 53.2314 86.4019C52.8808 86.5201 52.5166 86.6645 52.193 86.8614C51.613 87.2027 51.3973 88.0166 51.6805 88.6335C51.9097 89.1192 52.2874 89.4999 52.7999 89.6836C53.0022 89.7493 53.2719 89.7624 53.4742 89.6968C54.2159 89.4736 54.7554 88.7385 54.7554 88.0297C54.7554 87.2683 54.2969 86.8089 53.663 86.4676Z" fill="#4070DB"/>
            <path fill-rule="evenodd" clip-rule="evenodd" d="M97.4672 135.207C97.0896 135.168 96.6985 135.155 96.3343 135.221C95.8488 135.312 95.5251 135.641 95.4173 136.126C95.215 137.032 95.8353 137.977 96.7524 138.161C96.9008 138.187 97.0626 138.187 97.211 138.148C97.9662 137.912 98.5057 137.216 98.5057 136.481C98.5192 135.824 98.1011 135.286 97.4672 135.207Z" fill="#4070DB"/>
            <path fill-rule="evenodd" clip-rule="evenodd" d="M165.089 167.145C164.832 167.053 164.468 167.079 164.225 167.198C163.902 167.355 163.619 167.631 163.389 167.906C163.039 168.353 163.039 168.878 163.254 169.377C163.484 169.902 163.956 170.125 164.536 170.125C164.617 170.125 164.684 170.125 164.819 170.125C164.913 170.112 165.075 170.112 165.223 170.085C165.83 169.994 166.275 169.482 166.289 168.852C166.302 168.116 165.844 167.408 165.089 167.145Z" fill="#4070DB"/>
            <path fill-rule="evenodd" clip-rule="evenodd" d="M155.014 165.386C154.879 165.32 154.731 165.32 154.583 165.281C154.043 165.268 153.288 165.819 153.072 166.436C152.897 166.948 152.924 167.447 153.315 167.88C153.409 167.985 153.531 168.09 153.666 168.156C154.637 168.641 155.931 167.985 156.08 166.922C156.107 166.725 156.053 166.476 155.958 166.292C155.769 165.885 155.432 165.583 155.014 165.386Z" fill="#4070DB"/>
            <path fill-rule="evenodd" clip-rule="evenodd" d="M51.478 96.6014C50.7498 96.6146 50.0485 97.1396 49.8327 97.8747C49.7248 98.2554 49.8192 98.6361 50.1429 98.8593C50.4935 99.1218 50.8981 99.3318 51.3162 99.4893C51.4915 99.555 51.7882 99.5025 51.9366 99.3843C52.2333 99.1743 52.5165 98.9118 52.7053 98.6098C53.2583 97.6647 52.5839 96.5883 51.478 96.6014Z" fill="#4070DB"/>
            <path fill-rule="evenodd" clip-rule="evenodd" d="M28.2813 51.7208C28.052 51.6946 27.8227 51.6946 27.5934 51.6946C26.9461 51.7208 26.2987 52.4165 26.3392 53.0335C26.3797 53.7949 27.1484 54.5562 27.9576 54.6481C28.0385 54.6612 28.1194 54.6612 28.1869 54.635C28.8477 54.4643 29.4141 53.6373 29.3737 52.9154C29.3602 52.2984 28.9286 51.8127 28.2813 51.7208Z" fill="#4070DB"/>
            <path fill-rule="evenodd" clip-rule="evenodd" d="M78.0466 121.726C77.4127 121.805 76.9677 122.317 76.9407 122.96C76.9002 123.735 77.3183 124.22 77.9657 124.562C78.087 124.627 78.2624 124.627 78.4107 124.653C79.139 124.535 79.8133 123.905 79.9617 123.196C79.9886 123.065 79.9617 122.894 79.9077 122.763C79.5301 122.002 78.8288 121.621 78.0466 121.726Z" fill="#4070DB"/>
            <path fill-rule="evenodd" clip-rule="evenodd" d="M145.115 163.916C144.926 163.785 144.71 163.666 144.494 163.627C144.292 163.588 144.009 163.575 143.847 163.68C143.537 163.876 143.213 164.126 143.038 164.441C142.566 165.242 142.916 166.528 144.211 166.515C145.007 166.528 145.479 166.069 145.816 165.452C146.018 165.071 145.641 164.27 145.115 163.916Z" fill="#4070DB"/>
            <path fill-rule="evenodd" clip-rule="evenodd" d="M35.2 73.4195C34.5257 73.0257 33.5142 73.3539 33.258 73.9971C32.9208 74.8241 33.4333 75.9005 34.2964 76.163C34.3638 76.1893 34.4448 76.1761 34.5257 76.1761C35.4158 76.0449 36.0497 75.4411 36.1441 74.5747C36.1576 74.4434 36.1036 74.2596 36.0227 74.1678C35.7664 73.9052 35.5102 73.6164 35.2 73.4195Z" fill="#4070DB"/>
            <path fill-rule="evenodd" clip-rule="evenodd" d="M43.0895 84.958C42.9276 84.9711 42.7658 84.9712 42.6309 85.0237C42.1184 85.2337 41.7543 85.6144 41.5385 86.1001C41.5115 86.1657 41.5115 86.2444 41.4981 86.3101C41.3767 86.9927 42.3073 87.9641 43.049 87.9247C43.1974 87.9116 43.3592 87.8853 43.4806 87.8066C43.7233 87.6359 43.9796 87.4653 44.1819 87.2421C44.6539 86.7433 44.6539 86.1657 44.2088 85.6406C43.9121 85.2993 43.5885 84.9974 43.0895 84.958Z" fill="#4070DB"/>
            <path fill-rule="evenodd" clip-rule="evenodd" d="M12.9472 18.4966C12.8258 18.5097 12.61 18.5228 12.3807 18.5753C11.8817 18.6804 11.5176 19.1529 11.4771 19.7042C11.4367 20.2687 11.7064 20.7938 12.138 21.0038C12.637 21.2401 13.163 21.227 13.6754 21.0957C14.1205 20.9775 14.5925 20.1112 14.4846 19.6518C14.3228 18.9166 13.7968 18.4966 12.9472 18.4966Z" fill="#4070DB"/>
            <path fill-rule="evenodd" clip-rule="evenodd" d="M115.849 148.636C115.701 148.623 115.539 148.623 115.404 148.61C114.635 148.61 114.109 149.03 113.961 149.778C113.934 149.91 113.961 150.08 114.015 150.212C114.204 150.632 114.527 150.947 114.945 151.157C115.97 151.642 117.022 150.96 116.968 149.857C116.928 149.201 116.496 148.715 115.849 148.636Z" fill="#4070DB"/>
            <path fill-rule="evenodd" clip-rule="evenodd" d="M87.1766 133.488C86.6506 133.304 86.1381 133.33 85.6931 133.698C85.248 134.065 85.1806 134.564 85.3019 135.102C85.4233 135.601 85.8549 135.943 86.4483 136.008C86.5966 136.021 86.745 136.008 87.298 136.008C87.6216 135.995 88.1206 135.549 88.2285 134.787C88.242 134.656 88.215 134.499 88.1476 134.367C87.9318 133.974 87.6216 133.645 87.1766 133.488Z" fill="#4070DB"/>
            <path fill-rule="evenodd" clip-rule="evenodd" d="M106.193 147.048C105.127 146.483 104.17 147.192 103.832 148.019C103.805 148.085 103.819 148.164 103.832 148.242C103.927 148.991 104.426 149.463 105.276 149.489C105.383 149.476 105.613 149.476 105.828 149.437C106.341 149.345 106.759 148.899 106.813 148.374C106.84 147.822 106.719 147.324 106.193 147.048Z" fill="#4070DB"/>
            <path fill-rule="evenodd" clip-rule="evenodd" d="M19.4339 40.0773C18.7866 40.1823 18.3685 40.6024 18.0988 41.1668C18.0718 41.2324 18.0718 41.3112 18.0718 41.3768C18.0718 42.0463 18.6652 42.6764 19.326 42.6895C19.6227 42.6895 19.9329 42.6895 20.2161 42.6107C20.5938 42.5057 20.8635 42.2301 20.9849 41.8625C21.349 40.8124 20.5398 39.8935 19.4339 40.0773Z" fill="#4070DB"/>
            <path fill-rule="evenodd" clip-rule="evenodd" d="M26.0963 61.6183C25.3545 61.6445 24.869 62.1565 24.842 62.9047C24.8286 63.7448 25.368 64.2568 26.2581 64.2305C27.0134 64.2043 27.4989 63.7054 27.5124 62.9572C27.5259 62.104 26.9594 61.5789 26.0963 61.6183Z" fill="#4070DB"/>
            <path fill-rule="evenodd" clip-rule="evenodd" d="M134.137 162.104C133.355 162.078 132.802 162.524 132.734 163.22C132.653 164.06 133.179 164.677 134.002 164.703C134.865 164.73 135.418 164.205 135.405 163.351C135.378 162.616 134.892 162.131 134.137 162.104Z" fill="#4070DB"/>
            <path fill-rule="evenodd" clip-rule="evenodd" d="M59.7452 108.284C58.936 108.311 58.4235 108.941 58.5045 109.794C58.5719 110.503 59.1248 110.923 59.9205 110.897C60.6758 110.87 61.1613 110.358 61.1748 109.623C61.1748 108.77 60.6084 108.245 59.7452 108.284Z" fill="#4070DB"/>
        </g>
    </g>
    <defs>
        <clipPath id="clip0_908_20695">
            <rect width="459" height="445" fill="white" transform="translate(0 -261)"/>
        </clipPath>
    </defs>
</svg>
