<svg width="56" height="56" viewBox="0 0 56 56" fill="none" xmlns="http://www.w3.org/2000/svg">
<g clip-path="url(#clip0_1466_52995)">
<path d="M34.823 6.25391C34.823 5.80077 34.4558 5.43359 34.0026 5.43359H16.2566C15.8034 5.43359 15.4363 5.80077 15.4363 6.25391C15.4363 6.70706 15.8034 7.07423 16.2566 7.07423H34.0026C34.4557 7.07423 34.823 6.70695 34.823 6.25391Z" fill="#16C120"/>
<path d="M20.6316 9.68805C20.1784 9.68805 19.8113 10.0552 19.8113 10.5084C19.8113 10.9615 20.1784 11.3287 20.6316 11.3287H29.6275C30.0806 11.3287 30.4478 10.9615 30.4478 10.5084C30.4478 10.0552 30.0806 9.68805 29.6275 9.68805H20.6316Z" fill="#16C120"/>
<path d="M53.4592 41.5721L44.2007 36.8764V1.37158C44.2007 0.61524 43.5849 0 42.828 0H12.567C12.1138 0 11.7466 0.367175 11.7466 0.82032C11.7466 1.27347 12.1138 1.64064 12.567 1.64064H42.5601V36.0442L41.3377 35.4243C42.4562 33.4975 41.3441 31.0527 39.1731 30.6152L37.6836 30.3151C37.8855 25.4786 35.5893 20.6608 31.2298 17.863C24.7004 13.6723 15.9788 15.5754 11.7881 22.1047C7.59734 28.6344 9.50027 37.356 16.0299 41.5465C20.3776 44.3369 25.6943 44.4517 30.0437 42.2341L30.9319 43.4563C32.2376 45.2529 34.9223 45.2364 36.2053 43.4209L42.5601 48.4741V49.7858H7.69862V21.8249C7.69862 21.3718 7.33145 21.0046 6.8783 21.0046C6.42516 21.0046 6.05798 21.3718 6.05798 21.8249V49.7858H1.66872V4.50411C1.66872 2.92515 2.95323 1.64064 4.53219 1.64064H6.05798V18.5075C6.05798 18.9607 6.42516 19.3278 6.8783 19.3278C7.33145 19.3278 7.69862 18.9607 7.69862 18.5075V1.64064H9.24957C9.70272 1.64064 10.0699 1.27347 10.0699 0.82032C10.0699 0.367175 9.70261 0 9.24947 0H4.53208C2.28134 0 0.411004 1.65945 0.0800324 3.81908C0.0457977 4.04243 0.0280787 4.27125 0.0280787 4.50411V50.6045C0.0280787 50.6052 0.0279694 50.6059 0.0279694 50.6067V51.4955C0.0279694 53.9793 2.0488 56.0001 4.53262 56.0001H31.4061C31.8592 56.0001 32.2264 55.6329 32.2264 55.1798C32.2264 54.7266 31.8592 54.3595 31.4061 54.3595H4.53251C2.95334 54.3595 1.6685 53.0747 1.6685 51.4955V51.427H40.1339V54.3595H34.724C34.2709 54.3595 33.9037 54.7266 33.9037 55.1798C33.9037 55.6329 34.2709 56.0001 34.724 56.0001H40.2198C41.0771 56.0001 41.7745 55.3027 41.7745 54.4454V51.4264H42.8279C43.5848 51.4264 44.2006 50.8112 44.2006 50.0549V49.7787L46.8433 51.8801C48.9819 53.5805 52.1015 53.0389 53.5594 50.7672L55.2447 48.1412C56.7087 45.8605 55.8846 42.8021 53.4592 41.5721ZM16.916 40.1658C11.1478 36.4638 9.4668 28.7591 13.1686 22.9908C16.8652 17.2314 24.567 15.5364 30.3435 19.2436C36.1116 22.9457 37.7926 30.6503 34.0907 36.4185C30.3651 42.2235 22.6743 43.8613 16.916 40.1658ZM33.603 43.1521C33.068 43.168 32.5753 42.9269 32.2591 42.4917L31.4656 41.3998C33.0485 40.3399 34.4115 38.9561 35.4715 37.3047C36.5474 35.6282 37.2206 33.8072 37.518 31.9554L38.8491 32.2236C39.3764 32.3298 39.7994 32.6749 40.0092 33.1703C40.2192 33.6656 40.1728 34.2096 39.8823 34.6625L34.9067 42.4152C34.616 42.868 34.1408 43.1366 33.603 43.1521ZM53.8642 47.2552L52.1788 49.8812C51.2443 51.3369 49.2456 51.694 47.8646 50.5961L37.0996 42.0358L40.451 36.8141L52.717 43.0352C54.2632 43.8194 54.8151 45.7733 53.8642 47.2552Z" fill="#16C120"/>
<path d="M50.4543 45.9459L47.0642 43.7702C46.6831 43.5254 46.1755 43.6361 45.9308 44.0175C45.6862 44.3987 45.7967 44.9062 46.1781 45.1509L49.5682 47.3267C49.9513 47.5729 50.4584 47.4586 50.7016 47.0794C50.9462 46.6981 50.8355 46.1907 50.4543 45.9459Z" fill="#16C120"/>
<path d="M32.0486 35.1077C35.0278 30.4657 33.6751 24.2654 29.0331 21.2862C24.3808 18.3002 18.1982 19.6484 15.2118 24.3017C12.2327 28.9436 13.5853 35.144 18.2273 38.1232C22.8861 41.1136 29.0806 39.7322 32.0486 35.1077ZM19.1134 36.7426C15.2238 34.246 14.0959 29.0782 16.5924 25.1879C19.0751 21.3197 24.2545 20.1691 28.147 22.6669C32.0275 25.1575 33.1584 30.3409 30.668 34.2216C28.1773 38.1019 22.9943 39.233 19.1134 36.7426Z" fill="#16C120"/>
</g>
<defs>
<clipPath id="clip0_1466_52995">
<rect width="56" height="56" fill="white"/>
</clipPath>
</defs>
</svg>
