<svg width="56" height="56" viewBox="0 0 56 56" fill="none" xmlns="http://www.w3.org/2000/svg">
<path d="M51.5192 20.4442H48.1818V20.0694C48.1818 19.1364 47.4227 18.3775 46.4897 18.3775H39.9073C39.4537 18.3775 39.0859 18.7452 39.0859 19.1989C39.0859 19.6527 39.4537 20.0204 39.9073 20.0204H46.4897C46.5168 20.0204 46.5388 20.0423 46.5388 20.0694V30.0855C46.5388 30.5393 46.9066 30.907 47.3603 30.907C47.814 30.907 48.1818 30.5393 48.1818 30.0855V22.0871H51.5192C51.6303 22.0871 51.7207 22.1775 51.7207 22.2886V50.9479C51.7207 52.8277 50.1913 54.3571 48.3114 54.3571H7.68711C5.80726 54.3571 4.27789 52.8277 4.27789 50.9479V22.2886C4.27789 22.1775 4.36826 22.0871 4.47932 22.0871H7.92633V50.1829C7.92633 51.3413 8.86872 52.2838 10.0272 52.2838H46.0808C47.2393 52.2838 48.1817 51.3414 48.1817 50.1829V33.5893C48.1817 33.1355 47.8139 32.7678 47.3602 32.7678C46.9065 32.7678 46.5387 33.1355 46.5387 33.5893V45.4109H33.2479C31.5266 45.4109 29.973 46.1389 28.8755 47.3016V36.6756C28.8755 36.2218 28.5077 35.8541 28.054 35.8541C27.6004 35.8541 27.2326 36.2218 27.2326 36.6756V47.3017C26.1351 46.139 24.5814 45.411 22.8601 45.411H19.1274C18.6737 45.411 18.3059 45.7787 18.3059 46.2325C18.3059 46.6863 18.6737 47.054 19.1274 47.054H22.8601C25.0029 47.054 26.7893 48.6037 27.1606 50.6409H10.0272C9.77464 50.6409 9.56927 50.4355 9.56927 50.1829V47.054H15.6235C16.0772 47.054 16.445 46.6863 16.445 46.2325C16.445 45.7787 16.0772 45.411 15.6235 45.411H9.56927V20.0694C9.56927 20.0423 9.59129 20.0204 9.61834 20.0204H16.2007C16.6544 20.0204 17.0222 19.6527 17.0222 19.1989C17.0222 18.7452 16.6544 18.3775 16.2007 18.3775H9.61834C8.68537 18.3775 7.92633 19.1365 7.92633 20.0694V20.4442H4.47932C3.46234 20.4442 2.63495 21.2716 2.63495 22.2886V50.9479C2.63495 53.7336 4.90134 56 7.68711 56H48.3112C51.097 56 53.3634 53.7336 53.3634 50.9479V22.2886C53.3635 21.2716 52.5362 20.4442 51.5192 20.4442ZM33.2479 47.0539H46.5387V50.1829C46.5387 50.4355 46.3333 50.6409 46.0808 50.6409H28.9476C29.3188 48.6036 31.1052 47.0539 33.2479 47.0539Z" fill="#4B56FF"/>
<path d="M17.102 11.5259C17.5529 11.5678 17.9543 11.2369 17.9969 10.7852C18.2319 8.29402 19.3822 5.98755 21.2363 4.29072C23.1019 2.58337 25.5233 1.64294 28.0545 1.64294C33.6255 1.64294 38.1578 6.17528 38.1578 11.7462C38.1578 13.8425 37.5216 15.8528 36.318 17.5601C36.3112 17.5698 36.3046 17.5796 36.2981 17.5895L31.0414 25.7733C30.9563 25.9058 30.911 26.0598 30.911 26.2174V27.2815C30.911 27.4975 30.7354 27.6732 30.5194 27.6732H30.4657L30.989 18.7931H31.9248C33.264 18.7931 34.3533 17.7037 34.3533 16.3647V16.265C34.3533 14.926 33.264 13.8367 31.9248 13.8367C30.6411 13.8367 29.5762 14.8406 29.5006 16.1222L29.4401 17.1502H26.5593L26.4987 16.1222C26.4233 14.8406 25.3583 13.8367 24.0745 13.8367C22.7354 13.8367 21.646 14.926 21.646 16.265V16.3647C21.646 17.7037 22.7354 18.7931 24.0745 18.7931H25.0103L25.5334 27.6675C25.3442 27.6399 25.198 27.4783 25.198 27.2815V26.2174C25.198 26.0598 25.1527 25.9058 25.0677 25.7733L19.8109 17.5895C19.8045 17.5796 19.7979 17.5698 19.7912 17.5601C19.0353 16.4878 18.503 15.2963 18.2093 14.0184C18.1076 13.5762 17.6662 13.3003 17.2247 13.4018C16.7825 13.5036 16.5065 13.9443 16.6081 14.3865C16.9485 15.8672 17.5642 17.2484 18.438 18.4919L23.5552 26.4582V27.2813C23.5552 28.1108 24.0548 28.8248 24.7684 29.1412V30.5304C24.7684 31.9922 25.9576 33.1814 27.4193 33.1814H28.6903C30.152 33.1814 31.3413 31.9922 31.3413 30.5304V29.1412C32.0547 28.8248 32.5544 28.1109 32.5544 27.2813V26.4582L37.6715 18.4919C39.0648 16.5093 39.8011 14.177 39.8011 11.7461C39.8007 5.26925 34.5313 0 28.0545 0C25.1117 0 22.2963 1.09343 20.1271 3.07877C17.9719 5.0514 16.6345 7.73334 16.3613 10.6309C16.3186 11.0828 16.6503 11.4834 17.102 11.5259ZM31.1407 16.2188C31.1652 15.8043 31.5096 15.4795 31.9248 15.4795C32.358 15.4795 32.7104 15.8319 32.7104 16.2649V16.3646C32.7104 16.7977 32.358 17.15 31.9248 17.15H31.0858L31.1407 16.2188ZM24.0745 17.15C23.6413 17.15 23.289 16.7977 23.289 16.3646V16.2649C23.289 15.8319 23.6413 15.4795 24.0745 15.4795C24.4899 15.4795 24.8342 15.8043 24.8587 16.2188L24.9135 17.15H24.0745ZM29.3432 18.793L28.82 27.6731H27.1795L26.6563 18.793H29.3432ZM29.6979 30.5305C29.6979 31.0863 29.2458 31.5385 28.6899 31.5385H27.4189C26.8632 31.5385 26.4109 31.0863 26.4109 30.5305V29.3161H29.6978V30.5305H29.6979Z" fill="#4B56FF"/>
<path d="M42.4428 6.23781C42.6353 6.23781 42.8285 6.17056 42.9845 6.03365L44.7768 4.45993C45.1178 4.16069 45.1514 3.64152 44.8522 3.30066C44.5529 2.95981 44.0339 2.92607 43.6929 3.22531L41.9006 4.79903C41.5596 5.09826 41.526 5.61743 41.8252 5.95829C41.9876 6.14329 42.2147 6.23781 42.4428 6.23781Z" fill="#4B56FF"/>
<path d="M41.9005 11.1921L43.6929 12.766C43.8488 12.903 44.042 12.9701 44.2346 12.9701C44.4627 12.9701 44.6898 12.8756 44.8522 12.6906C45.1516 12.3498 45.1178 11.8307 44.777 11.5314L42.9846 9.95752C42.6437 9.65806 42.1247 9.69191 41.8254 10.0329C41.5259 10.3737 41.5596 10.8927 41.9005 11.1921Z" fill="#4B56FF"/>
<path d="M11.3308 4.4599L13.1232 6.03362C13.2791 6.17064 13.4724 6.23778 13.6648 6.23778C13.893 6.23778 14.12 6.14326 14.2824 5.95826C14.5818 5.61741 14.548 5.09824 14.2071 4.799L12.4147 3.22528C12.0739 2.92583 11.5547 2.95967 11.2555 3.30064C10.9561 3.64149 10.9899 4.16055 11.3308 4.4599Z" fill="#4B56FF"/>
<path d="M11.873 12.9701C12.0655 12.9701 12.2587 12.9029 12.4148 12.766L14.2071 11.1921C14.548 10.8928 14.5817 10.3737 14.2823 10.0329C13.9831 9.69201 13.464 9.65828 13.1231 9.95752L11.3307 11.5313C10.9899 11.8307 10.9561 12.3498 11.2555 12.6906C11.4178 12.8756 11.6448 12.9701 11.873 12.9701Z" fill="#4B56FF"/>
<path d="M20.7862 28.4946C20.7862 28.0408 20.4184 27.6731 19.9647 27.6731H11.8728C11.4191 27.6731 11.0513 28.0408 11.0513 28.4946C11.0513 28.9484 11.4191 29.3161 11.8728 29.3161H19.9647C20.4184 29.3161 20.7862 28.9484 20.7862 28.4946Z" fill="#4B56FF"/>
<path d="M22.4671 31.8517H13.3565C12.9028 31.8517 12.535 32.2194 12.535 32.6732C12.535 33.127 12.9028 33.4947 13.3565 33.4947H22.4671C22.9207 33.4947 23.2885 33.127 23.2885 32.6732C23.2885 32.2194 22.9207 31.8517 22.4671 31.8517Z" fill="#4B56FF"/>
<path d="M22.4671 35.8542H13.3565C12.9028 35.8542 12.535 36.2218 12.535 36.6756C12.535 37.1294 12.9028 37.4971 13.3565 37.4971H22.4671C22.9207 37.4971 23.2885 37.1294 23.2885 36.6756C23.2885 36.2218 22.9207 35.8542 22.4671 35.8542Z" fill="#4B56FF"/>
<path d="M22.4671 39.8564H13.3565C12.9028 39.8564 12.535 40.2241 12.535 40.6779C12.535 41.1317 12.9028 41.4994 13.3565 41.4994H22.4671C22.9207 41.4994 23.2885 41.1317 23.2885 40.6779C23.2885 40.2241 22.9207 39.8564 22.4671 39.8564Z" fill="#4B56FF"/>
<path d="M45.0564 28.4946C45.0564 28.0408 44.6886 27.6731 44.2349 27.6731H36.143C35.6893 27.6731 35.3215 28.0408 35.3215 28.4946C35.3215 28.9484 35.6893 29.3161 36.143 29.3161H44.2349C44.6886 29.3161 45.0564 28.9484 45.0564 28.4946Z" fill="#4B56FF"/>
<path d="M42.7512 31.8517H33.6406C33.1869 31.8517 32.8191 32.2194 32.8191 32.6732C32.8191 33.127 33.1869 33.4947 33.6406 33.4947H42.7512C43.2048 33.4947 43.5726 33.127 43.5726 32.6732C43.5726 32.2194 43.2048 31.8517 42.7512 31.8517Z" fill="#4B56FF"/>
<path d="M42.7512 35.8542H33.6406C33.1869 35.8542 32.8191 36.2218 32.8191 36.6756C32.8191 37.1294 33.1869 37.4971 33.6406 37.4971H42.7512C43.2048 37.4971 43.5726 37.1294 43.5726 36.6756C43.5726 36.2218 43.2048 35.8542 42.7512 35.8542Z" fill="#4B56FF"/>
<path d="M42.7512 39.8564H33.6406C33.1869 39.8564 32.8191 40.2241 32.8191 40.6779C32.8191 41.1317 33.1869 41.4994 33.6406 41.4994H42.7512C43.2048 41.4994 43.5726 41.1317 43.5726 40.6779C43.5726 40.2241 43.2048 39.8564 42.7512 39.8564Z" fill="#4B56FF"/>
</svg>
