<svg width="57" height="56" viewBox="0 0 57 56" fill="none" xmlns="http://www.w3.org/2000/svg">
<path d="M7.80371 35.3251H28.8019" stroke="#DA5D62" stroke-width="1.875" stroke-miterlimit="10" stroke-linecap="round" stroke-linejoin="round"/>
<path d="M7.80371 29.5616H28.8019" stroke="#DA5D62" stroke-width="1.875" stroke-miterlimit="10" stroke-linecap="round" stroke-linejoin="round"/>
<path d="M7.80371 23.798H28.8019" stroke="#DA5D62" stroke-width="1.875" stroke-miterlimit="10" stroke-linecap="round" stroke-linejoin="round"/>
<path d="M7.80371 18.0345H28.8019" stroke="#DA5D62" stroke-width="1.875" stroke-miterlimit="10" stroke-linecap="round" stroke-linejoin="round"/>
<path d="M7.80371 9.58777H18.3297" stroke="#DA5D62" stroke-width="1.875" stroke-miterlimit="10" stroke-linecap="round" stroke-linejoin="round"/>
<mask id="mask0_1466_35933" style="mask-type:luminance" maskUnits="userSpaceOnUse" x="0" y="0" width="57" height="56">
<path d="M0.5 56H56.5V0H0.5V56Z" fill="white"/>
</mask>
<g mask="url(#mask0_1466_35933)">
<path d="M20.9964 44.8236H19.5743C19.0118 44.8236 18.5558 45.2796 18.5558 45.8421V48.5036C18.5558 49.0661 19.0118 49.5221 19.5743 49.5221H36.4144C36.9769 49.5221 37.4329 49.0661 37.4329 48.5036V45.8421C37.4329 45.2796 36.9769 44.8236 36.4144 44.8236H24.8311M44.3862 41.0193V51.9395C44.3862 53.7279 42.9364 55.1777 41.1479 55.1777H13.3189C12.4601 55.1777 11.6364 54.8364 11.0291 54.2292L2.57193 45.772C1.96468 45.1647 1.62354 44.3411 1.62354 43.4823V4.05646C1.62354 2.26807 3.0733 0.818298 4.86158 0.818298H41.1479C42.9364 0.818298 44.3862 2.26807 44.3862 4.05646V5.16103" stroke="#DA5D62" stroke-width="1.875" stroke-miterlimit="10" stroke-linecap="round" stroke-linejoin="round"/>
<path d="M39.4917 16.0803V7.79466C39.4917 7.07432 40.2816 6.63299 40.8951 7.01066L43.9032 8.86249C44.0512 8.9536 44.2186 8.9991 44.3858 8.9991C44.5531 8.9991 44.7206 8.9536 44.8685 8.86249L47.8766 7.01066C48.4901 6.63299 49.2799 7.07432 49.2799 7.79466V16.0803" stroke="#DA5D62" stroke-width="1.875" stroke-miterlimit="10" stroke-linecap="round" stroke-linejoin="round"/>
<path d="M44.3844 19.7081C41.0407 19.7081 38.3301 22.4187 38.3301 25.7624C38.3301 29.1061 41.0407 31.8168 44.3844 31.8168C47.7281 31.8168 50.4387 29.1061 50.4387 25.7624C50.4387 22.4187 47.7281 19.7081 44.3844 19.7081ZM54.9409 24.3776C54.3718 25.2131 54.3718 26.3117 54.9409 27.1472C55.8469 28.4769 55.2532 30.3038 53.7387 30.847C52.7871 31.1884 52.1414 32.0772 52.1109 33.0877C52.0622 34.6958 50.508 35.825 48.9636 35.3743C47.9931 35.0912 46.9481 35.4307 46.3295 36.2303C45.8372 36.8664 45.1109 37.1846 44.3844 37.1846C43.6579 37.1846 42.9317 36.8664 42.4394 36.2303C41.8206 35.4307 40.7758 35.0912 39.8053 35.3743C38.2608 35.825 36.7067 34.6958 36.6579 33.0877C36.6274 32.0772 35.9817 31.1884 35.0301 30.847C33.5157 30.3038 32.922 28.4769 33.8278 27.1472C34.397 26.3117 34.397 25.2131 33.8278 24.3776C32.922 23.0481 33.5157 21.2211 35.0301 20.6778C35.9817 20.3365 36.6274 19.4477 36.6579 18.4371C36.7033 16.9385 38.0563 15.8558 39.4903 16.0802C39.5951 16.0965 39.7002 16.1198 39.8053 16.1505C40.7758 16.4337 41.8206 16.0942 42.4394 15.2947C43.424 14.0222 45.3449 14.0222 46.3295 15.2947C46.9481 16.0942 47.9931 16.4337 48.9636 16.1505C49.0687 16.1198 49.1738 16.0965 49.2785 16.0802C50.7126 15.8558 52.0656 16.9385 52.1109 18.4371C52.1414 19.4477 52.7871 20.3365 53.7387 20.6778C55.2532 21.2211 55.8469 23.0481 54.9409 24.3776Z" stroke="#DA5D62" stroke-width="1.875" stroke-miterlimit="10" stroke-linecap="round" stroke-linejoin="round"/>
<path d="M44.3856 31.817C41.0419 31.817 38.3313 29.1063 38.3313 25.7626C38.3313 22.4188 41.0419 19.7083 44.3856 19.7083C47.7293 19.7083 50.44 22.4188 50.44 25.7626C50.44 29.1063 47.7293 31.817 44.3856 31.817Z" stroke="#DA5D62" stroke-width="1.875" stroke-miterlimit="10" stroke-linecap="round" stroke-linejoin="round"/>
<path d="M11.9767 54.8866V46.8311C11.9767 45.7222 11.0779 44.8235 9.96926 44.8235H1.91357" stroke="#DA5D62" stroke-width="1.875" stroke-miterlimit="10" stroke-linecap="round" stroke-linejoin="round"/>
</g>
</svg>
