<svg width="57" height="56" viewBox="0 0 57 56" fill="none" xmlns="http://www.w3.org/2000/svg">
<mask id="path-1-inside-1_1466_13742" fill="white">
<path d="M51.4341 39.2616C52.0658 39.5787 52.838 39.3247 53.1254 38.6789C55.7776 32.7183 56.2295 25.9932 54.3736 19.7099C52.3965 13.0165 47.9484 7.32517 41.9308 3.78963C35.9133 0.254079 28.7766 -0.861199 21.9673 0.669858C15.158 2.20091 9.18558 6.26375 5.26063 12.0348C1.33568 17.8059 -0.248127 24.8535 0.830235 31.749C1.9086 38.6445 5.56845 44.872 11.0679 49.1692C16.5674 53.4665 23.4951 55.5119 30.4467 54.8909C36.9725 54.308 43.061 51.4163 47.6298 46.7593C48.1248 46.2547 48.0773 45.4433 47.5503 44.9722C47.0232 44.5012 46.2163 44.5492 45.7188 45.0515C41.5848 49.2252 36.0975 51.8161 30.219 52.3412C23.9145 52.9044 17.6317 51.0493 12.6441 47.1521C7.65652 43.2549 4.33735 37.6071 3.35937 31.3535C2.38139 25.0998 3.81777 18.7083 7.37735 13.4744C10.9369 8.24056 16.3534 4.55592 22.5289 3.16738C28.7043 1.77884 35.1767 2.7903 40.6341 5.99674C46.0914 9.20317 50.1255 14.3647 51.9185 20.435C53.5904 26.0952 53.1973 32.1507 50.8347 37.5292C50.5505 38.1764 50.8023 38.9445 51.4341 39.2616Z"/>
</mask>
<path d="M51.4341 39.2616C52.0658 39.5787 52.838 39.3247 53.1254 38.6789C55.7776 32.7183 56.2295 25.9932 54.3736 19.7099C52.3965 13.0165 47.9484 7.32517 41.9308 3.78963C35.9133 0.254079 28.7766 -0.861199 21.9673 0.669858C15.158 2.20091 9.18558 6.26375 5.26063 12.0348C1.33568 17.8059 -0.248127 24.8535 0.830235 31.749C1.9086 38.6445 5.56845 44.872 11.0679 49.1692C16.5674 53.4665 23.4951 55.5119 30.4467 54.8909C36.9725 54.308 43.061 51.4163 47.6298 46.7593C48.1248 46.2547 48.0773 45.4433 47.5503 44.9722C47.0232 44.5012 46.2163 44.5492 45.7188 45.0515C41.5848 49.2252 36.0975 51.8161 30.219 52.3412C23.9145 52.9044 17.6317 51.0493 12.6441 47.1521C7.65652 43.2549 4.33735 37.6071 3.35937 31.3535C2.38139 25.0998 3.81777 18.7083 7.37735 13.4744C10.9369 8.24056 16.3534 4.55592 22.5289 3.16738C28.7043 1.77884 35.1767 2.7903 40.6341 5.99674C46.0914 9.20317 50.1255 14.3647 51.9185 20.435C53.5904 26.0952 53.1973 32.1507 50.8347 37.5292C50.5505 38.1764 50.8023 38.9445 51.4341 39.2616Z" stroke="#FF8000" stroke-width="6" stroke-linejoin="round" mask="url(#path-1-inside-1_1466_13742)"/>
<circle cx="18" cy="27.5" r="2" fill="#FF8000"/>
<circle cx="28" cy="27.5" r="2" fill="#FF8000"/>
<circle cx="38" cy="27.5" r="2" fill="#FF8000"/>
</svg>
